0
SECTION
2
HEADER
9
$INSUNITS
70
4
9
$ACADVER
1
AC1014
9
$HANDSEED
5
FFFF
0
ENDSEC
0
SECTION
2
TABLES
0
TABLE
2
VPORT
5
8
100
AcDbSymbolTable
0
ENDTAB
0
TABLE
2
LTYPE
5
5
100
AcDbSymbolTable
0
LTYPE
5
14
100
AcDbSymbolTableRecord
100
AcDbLinetypeTableRecord
2
BYBLOCK
70
0
0
LTYPE
5
15
100
AcDbSymbolTableRecord
100
AcDbLinetypeTableRecord
2
BYLAYER
70
0
0
ENDTAB
0
TABLE
2
LAYER
5
2
100
AcDbSymbolTable
70
2
0
LAYER
5
50
100
AcDbSymbolTableRecord
100
AcDbLayerTableRecord
2
0
70
0
6
CONTINUOUS
0
ENDTAB
0
TABLE
2
STYLE
5
3
100
AcDbSymbolTable
70
1
0
STYLE
5
11
100
AcDbSymbolTableRecord
100
AcDbTextStyleTableRecord
2
STANDARD
70
0
0
ENDTAB
0
TABLE
2
VIEW
5
6
100
AcDbSymbolTable
70
0
0
ENDTAB
0
TABLE
2
UCS
5
7
100
AcDbSymbolTable
70
0
0
ENDTAB
0
TABLE
2
APPID
5
9
100
AcDbSymbolTable
70
2
0
APPID
5
12
100
AcDbSymbolTableRecord
100
AcDbRegAppTableRecord
2
ACAD
70
0
0
ENDTAB
0
TABLE
2
DIMSTYLE
5
A
100
AcDbSymbolTable
70
1
0
ENDTAB
0
TABLE
2
BLOCK_RECORD
5
1
100
AcDbSymbolTable
70
1
0
BLOCK_RECORD
5
1F
100
AcDbSymbolTableRecord
100
AcDbBlockTableRecord
2
*MODEL_SPACE
0
BLOCK_RECORD
5
1B
100
AcDbSymbolTableRecord
100
AcDbBlockTableRecord
2
*PAPER_SPACE
0
ENDTAB
0
ENDSEC
0
SECTION
2
BLOCKS
0
BLOCK
5
20
100
AcDbEntity
100
AcDbBlockBegin
2
*MODEL_SPACE
0
ENDBLK
5
21
100
AcDbEntity
100
AcDbBlockEnd
0
BLOCK
5
1C
100
AcDbEntity
100
AcDbBlockBegin
2
*PAPER_SPACE
0
ENDBLK
5
1D
100
AcDbEntity
100
AcDbBlockEnd
0
ENDSEC
0
SECTION
2
ENTITIES
0
SPLINE
5
100
100
AcDbEntity
8
0
100
AcDbSpline
70
1064
71
3
72
8
73
4
74
0
42
0.000000001
43
0.0000000001
44
0.0000000001
40
0
40
0
40
0
40
0
40
1
40
1
40
1
40
1
10
2.9448834610472496
20
-0.024746542232703436
30
0
10
1.3235856243136646
20
-0.024746542232703436
30
0
10
0.0043288984535796663
20
-1.3442524893924537
30
0
10
0.0043288984535796663
20
-2.965299216786224
30
0
0
LINE
5
101
100
AcDbEntity
8
0
100
AcDbLine
10
0.0043288984535795674
20
-2.9652992167862244
30
0
11
0.0043288984535796663
21
-59.638218984660504
31
0
0
SPLINE
5
102
100
AcDbEntity
8
0
100
AcDbSpline
70
1064
71
3
72
8
73
4
74
0
42
0.000000001
43
0.0000000001
44
0.0000000001
40
0
40
0
40
0
40
0
40
1
40
1
40
1
40
1
10
0.0043288984535796663
20
-59.638218984660504
30
0
10
0.0043288984535796663
20
-61.25976226661345
30
0
10
1.3235856243136646
20
-62.578773547254166
30
0
10
2.9448834610472496
20
-62.578773547254166
30
0
0
LINE
5
103
100
AcDbEntity
8
0
100
AcDbLine
10
2.9448834610472496
20
-62.578773547254166
30
0
11
97.726825005393266
21
-62.578773547254166
31
0
0
SPLINE
5
104
100
AcDbEntity
8
0
100
AcDbSpline
70
1064
71
3
72
8
73
4
74
0
42
0.000000001
43
0.0000000001
44
0.0000000001
40
0
40
0
40
0
40
0
40
1
40
1
40
1
40
1
10
97.726825005393266
20
-62.578773547254166
30
0
10
99.348364511265927
20
-62.578773547254166
30
0
10
100.66737956798696
20
-61.25976226661345
30
0
10
100.66737956798696
20
-59.638218984660504
30
0
0
LINE
5
105
100
AcDbEntity
8
0
100
AcDbLine
10
100.66737956798696
20
-59.638218984660504
30
0
11
100.66737956798696
21
-2.965299216786228
31
0
0
SPLINE
5
106
100
AcDbEntity
8
0
100
AcDbSpline
70
1064
71
3
72
8
73
4
74
0
42
0.000000001
43
0.0000000001
44
0.0000000001
40
0
40
0
40
0
40
0
40
1
40
1
40
1
40
1
10
100.66737956798696
20
-2.965299216786224
30
0
10
100.66737956798696
20
-1.3442524893924537
30
0
10
99.348372063426524
20
-0.024746542232703436
30
0
10
97.726825005393266
20
-0.024746542232703436
30
0
0
SPLINE
5
107
100
AcDbEntity
8
0
100
AcDbSpline
70
1064
71
3
72
8
73
4
74
0
42
0.000000001
43
0.0000000001
44
0.0000000001
40
0
40
0
40
0
40
0
40
1
40
1
40
1
40
1
10
97.726825005393266
20
-0.024746542232703436
30
0
10
66.300713916337529
20
-0.0039535560719677273
30
0
10
30.702275767171248
20
0.018904946011753989
30
0
10
2.9448834610472496
20
-0.024746542232703436
30
0
0
LINE
5
108
100
AcDbEntity
8
0
100
AcDbLine
10
17.429262893902585
20
-0.44482603518039182
30
0
11
17.565443453768339
21
-0.86490552812808019
31
0
0
LINE
5
109
100
AcDbEntity
8
0
100
AcDbLine
10
17.565443453768339
20
-0.86490552812808019
30
0
11
18.063901157420705
21
-2.4045343001773118
31
0
0
LINE
5
110
100
AcDbEntity
8
0
100
AcDbLine
10
18.063901157420705
20
-2.4045343001773118
30
0
11
26.440108204611565
21
-2.4045343001773118
31
0
0
SPLINE
5
111
100
AcDbEntity
8
0
100
AcDbSpline
70
1064
71
3
72
8
73
4
74
0
42
0.000000001
43
0.0000000001
44
0.0000000001
40
0
40
0
40
0
40
0
40
1
40
1
40
1
40
1
10
26.440108204611562
20
-2.4045343001773118
30
0
10
26.150452637115382
20
-2.4938008384211678
30
0
10
25.884903566241402
20
-2.638096194847245
30
0
10
25.654910067453045
20
-2.8246137931250006
30
0
0
LINE
5
112
100
AcDbEntity
8
0
100
AcDbLine
10
25.654910067453041
20
-2.8246137931250006
30
0
11
18.200519742601024
21
-2.8246137931250006
31
0
0
LINE
5
113
100
AcDbEntity
8
0
100
AcDbLine
10
18.200519742601024
20
-2.8246137931250006
30
0
11
19.508765418312247
21
-6.6931759617060171
31
0
0
LINE
5
114
100
AcDbEntity
8
0
100
AcDbLine
10
19.508765418312247
20
-6.6931759617060171
30
0
11
25.891987492880379
21
-6.6669208753942772
31
0
0
SPLINE
5
115
100
AcDbEntity
8
0
100
AcDbSpline
70
1064
71
3
72
8
73
4
74
0
42
0.000000001
43
0.0000000001
44
0.0000000001
40
0
40
0
40
0
40
0
40
1
40
1
40
1
40
1
10
25.891987492880379
20
-6.6669208753942772
30
0
10
26.254309949630571
20
-6.89250108033439
30
0
10
26.679390860932909
20
-7.0254663078264281
30
0
10
27.136628872052707
20
-7.0254663078264281
30
0
0
SPLINE
5
116
100
AcDbEntity
8
0
100
AcDbSpline
70
1064
71
3
72
8
73
4
74
0
42
0.000000001
43
0.0000000001
44
0.0000000001
40
0
40
0
40
0
40
0
40
1
40
1
40
1
40
1
10
27.136628872052707
20
-7.0254663078264281
30
0
10
27.593474170821516
20
-7.0254663078264281
30
0
10
28.019159254971534
20
-6.89250108033439
30
0
10
28.381270251225033
20
-6.6669208753942772
30
0
0
LINE
5
117
100
AcDbEntity
8
0
100
AcDbLine
10
28.381270251225033
20
-6.6669208753942772
30
0
11
34.631604507947237
21
-6.6669208753942772
31
0
0
SPLINE
5
118
100
AcDbEntity
8
0
100
AcDbSpline
70
1064
71
3
72
8
73
4
74
0
42
0.000000001
43
0.0000000001
44
0.0000000001
40
0
40
0
40
0
40
0
40
1
40
1
40
1
40
1
10
34.631604507947237
20
-6.6669208753942772
30
0
10
34.680753969105531
20
-6.9702194210069992
30
0
10
34.786967555726648
20
-7.2537690666613717
30
0
10
34.940080059648466
20
-7.5070789172695793
30
0
0
LINE
5
119
100
AcDbEntity
8
0
100
AcDbLine
10
34.940080059648466
20
-7.5070789172695793
30
0
11
19.718247248922065
21
-7.5070789172695793
31
0
0
LINE
5
120
100
AcDbEntity
8
0
100
AcDbLine
10
19.718247248922065
20
-7.5070789172695793
30
0
11
20.758602683974573
21
-10.716754722699104
31
0
0
LINE
5
121
100
AcDbEntity
8
0
100
AcDbLine
10
20.758602683974573
20
-10.716754722699104
30
0
11
20.791001452931098
21
-10.799622692878062
31
0
0
SPLINE
5
122
100
AcDbEntity
8
0
100
AcDbSpline
70
1064
71
3
72
8
73
4
74
0
42
0.000000001
43
0.0000000001
44
0.0000000001
40
0
40
0
40
0
40
0
40
1
40
1
40
1
40
1
10
20.791001452931095
20
-10.799622692878062
30
0
10
21.340466449248353
20
-12.201906928309691
30
0
10
21.774187032272433
20
-13.309083880314958
30
0
10
24.878940670542747
20
-13.309083880314958
30
0
0
LINE
5
123
100
AcDbEntity
8
0
100
AcDbLine
10
24.878940670542747
20
-13.309083880314956
30
0
11
76.12857461679566
21
-13.309083880314958
31
0
0
SPLINE
5
124
100
AcDbEntity
8
0
100
AcDbSpline
70
1064
71
3
72
8
73
4
74
0
42
0.000000001
43
0.0000000001
44
0.0000000001
40
0
40
0
40
0
40
0
40
1
40
1
40
1
40
1
10
76.12857461679566
20
-13.309083880314958
30
0
10
77.89562915303064
20
-13.309083880314958
30
0
10
78.59212716399
20
-12.277743836973841
30
0
10
79.094119278801259
20
-10.729094009092774
30
0
0
LINE
5
125
100
AcDbEntity
8
0
100
AcDbLine
10
79.094119278801259
20
-10.729094009092774
30
0
11
80.139798987073902
21
-7.5022191019261006
31
0
0
LINE
5
126
100
AcDbEntity
8
0
100
AcDbLine
10
80.139798987073902
20
-7.5022191019261006
30
0
11
64.987257249815102
21
-7.5071336704339
31
0
0
SPLINE
5
127
100
AcDbEntity
8
0
100
AcDbSpline
70
1064
71
3
72
8
73
4
74
0
42
0.000000001
43
0.0000000001
44
0.0000000001
40
0
40
0
40
0
40
0
40
1
40
1
40
1
40
1
10
64.987257249815116
20
-7.5071336704339
30
0
10
65.140588766394217
20
-7.2538238198256932
30
0
10
65.247036469993816
20
-6.970274174171319
30
0
10
65.295763010158737
20
-6.6669756285585979
30
0
0
LINE
5
128
100
AcDbEntity
8
0
100
AcDbLine
10
65.295763010158737
20
-6.6669756285585979
30
0
11
71.642477940406167
21
-6.6669756285585979
31
0
0
SPLINE
5
129
100
AcDbEntity
8
0
100
AcDbSpline
70
1064
71
3
72
8
73
4
74
0
42
0.000000001
43
0.0000000001
44
0.0000000001
40
0
40
0
40
0
40
0
40
1
40
1
40
1
40
1
10
71.642477940406152
20
-6.6669756285585979
30
0
10
72.004377476162972
20
-6.8925558334987098
30
0
10
72.430085216794765
20
-7.0255210609907479
30
0
10
72.887126871739071
20
-7.0255210609907479
30
0
0
SPLINE
5
130
100
AcDbEntity
8
0
100
AcDbSpline
70
1064
71
3
72
8
73
4
74
0
42
0.000000001
43
0.0000000001
44
0.0000000001
40
0
40
0
40
0
40
0
40
1
40
1
40
1
40
1
10
72.887126871739071
20
-7.0255210609907479
30
0
10
73.343964618347286
20
-7.0255210609907479
30
0
10
73.76986116299399
20
-6.8925558334987098
30
0
10
74.131775803072003
20
-6.6669756285585979
30
0
0
LINE
5
131
100
AcDbEntity
8
0
100
AcDbLine
10
74.131775803072003
20
-6.6669756285585979
30
0
11
80.412046824396441
21
-6.6624594365222336
31
0
0
LINE
5
132
100
AcDbEntity
8
0
100
AcDbLine
10
80.412046824396441
20
-6.6624594365222336
30
0
11
81.65632569986019
21
-2.8247063070923
31
0
0
LINE
5
133
100
AcDbEntity
8
0
100
AcDbLine
10
81.65632569986019
20
-2.8247063070923
30
0
11
74.36935167109867
21
-2.8247063070923
31
0
0
SPLINE
5
134
100
AcDbEntity
8
0
100
AcDbSpline
70
1064
71
3
72
8
73
4
74
0
42
0.000000001
43
0.0000000001
44
0.0000000001
40
0
40
0
40
0
40
0
40
1
40
1
40
1
40
1
10
74.36935167109867
20
-2.8247063070923
30
0
10
74.138935251316937
20
-2.6381887088145453
30
0
10
73.873197376428067
20
-2.4938895763081699
30
0
10
73.58333790059578
20
-2.4046268141446117
30
0
0
LINE
5
135
100
AcDbEntity
8
0
100
AcDbLine
10
73.583337900595794
20
-2.4046268141446117
30
0
11
81.792506259725926
21
-2.4046268141446117
31
0
0
LINE
5
136
100
AcDbEntity
8
0
100
AcDbLine
10
81.792506259725926
20
-2.4046268141446117
30
0
11
82.41195712828565
21
-0.49292763405599904
31
0
0
LINE
5
137
100
AcDbEntity
8
0
100
AcDbLine
10
82.41195712828565
20
-0.49292763405599904
30
0
11
83.348530772428944
21
-0.51015033629501039
31
0
0
LINE
5
138
100
AcDbEntity
8
0
100
AcDbLine
10
83.348530772428944
20
-0.51015033629501039
30
0
11
83.174174040750756
21
-0.86500937033627423
31
0
0
LINE
5
139
100
AcDbEntity
8
0
100
AcDbLine
10
83.174174040750756
20
-0.86500937033627423
30
0
11
82.675323624747406
21
-2.4046381423855054
31
0
0
LINE
5
140
100
AcDbEntity
8
0
100
AcDbLine
10
82.675323624747406
20
-2.4046381423855054
30
0
11
87.929218260282425
21
-2.4046381423855054
31
0
0
SPLINE
5
141
100
AcDbEntity
8
0
100
AcDbSpline
70
1064
71
3
72
8
73
4
74
0
42
0.000000001
43
0.0000000001
44
0.0000000001
40
0
40
0
40
0
40
0
40
1
40
1
40
1
40
1
10
87.929218260282425
20
-2.4046381423855054
30
0
10
88.306660142545667
20
-2.270844065268065
30
0
10
88.710859329800257
20
-2.1945993399317358
30
0
10
89.133251671930452
20
-2.1945993399317358
30
0
0
SPLINE
5
142
100
AcDbEntity
8
0
100
AcDbSpline
70
1064
71
3
72
8
73
4
74
0
42
0.000000001
43
0.0000000001
44
0.0000000001
40
0
40
0
40
0
40
0
40
1
40
1
40
1
40
1
10
89.133251671930452
20
-2.1945993399317358
30
0
10
91.131190861904102
20
-2.1945993399317358
30
0
10
92.756446030789945
20
-3.8197298981677541
30
0
10
92.756446030789945
20
-5.8177955868313873
30
0
0
SPLINE
5
143
100
AcDbEntity
8
0
100
AcDbSpline
70
1064
71
3
72
8
73
4
74
0
42
0.000000001
43
0.0000000001
44
0.0000000001
40
0
40
0
40
0
40
0
40
1
40
1
40
1
40
1
10
92.756446030789945
20
-5.8177955868313873
30
0
10
92.756446030789945
20
-6.4649279560353934
30
0
10
92.583350509931307
20
-7.0709794036577813
30
0
10
92.285093031516368
20
-7.5973470608124707
30
0
0
LINE
5
144
100
AcDbEntity
8
0
100
AcDbLine
10
92.285093031516368
20
-7.5973470608124707
30
0
11
90.514949661597655
21
-16.319769694242552
31
0
0
LINE
5
145
100
AcDbEntity
8
0
100
AcDbLine
10
90.514949661597655
20
-16.319769694242552
30
0
11
90.086258817530464
21
-16.319769694242552
31
0
0
LINE
5
146
100
AcDbEntity
8
0
100
AcDbLine
10
90.086258817530464
20
-16.319769694242552
30
0
11
91.699264381929723
21
-8.3726679159315918
31
0
0
SPLINE
5
147
100
AcDbEntity
8
0
100
AcDbSpline
70
1064
71
3
72
8
73
4
74
0
42
0.000000001
43
0.0000000001
44
0.0000000001
40
0
40
0
40
0
40
0
40
1
40
1
40
1
40
1
10
91.699264381929723
20
-8.37266791593159
30
0
10
91.042679539719842
20
-9.0317770678206628
30
0
10
90.1351364009073
20
-9.4409182001652265
30
0
10
89.133259224091034
20
-9.4409182001652265
30
0
0
SPLINE
5
148
100
AcDbEntity
8
0
100
AcDbSpline
70
1064
71
3
72
8
73
4
74
0
42
0.000000001
43
0.0000000001
44
0.0000000001
40
0
40
0
40
0
40
0
40
1
40
1
40
1
40
1
10
89.133259224091034
20
-9.4409182001652265
30
0
10
87.135561703256457
20
-9.4409182001652265
30
0
10
85.510064865231556
20
-7.815416642039934
30
0
10
85.510064865231556
20
-5.8177219532655764
30
0
0
SPLINE
5
149
100
AcDbEntity
8
0
100
AcDbSpline
70
1064
71
3
72
8
73
4
74
0
42
0.000000001
43
0.0000000001
44
0.0000000001
40
0
40
0
40
0
40
0
40
1
40
1
40
1
40
1
10
85.510064865231556
20
-5.8177219532655764
30
0
10
85.510064865231556
20
-4.5751791307188423
30
0
10
86.139122082069278
20
-3.4772818960458212
30
0
10
87.094855557644422
20
-2.8247063070923
30
0
0
LINE
5
150
100
AcDbEntity
8
0
100
AcDbLine
10
87.094855557644422
20
-2.8247063070923
30
0
11
82.539565985875015
21
-2.8247063070923
31
0
0
LINE
5
151
100
AcDbEntity
8
0
100
AcDbLine
10
82.539565985875015
20
-2.8247063070923
30
0
11
79.893500373558922
21
-10.987972634120402
31
0
0
SPLINE
5
152
100
AcDbEntity
8
0
100
AcDbSpline
70
1064
71
3
72
8
73
4
74
0
42
0.000000001
43
0.0000000001
44
0.0000000001
40
0
40
0
40
0
40
0
40
1
40
1
40
1
40
1
10
79.893500373558922
20
-10.987972634120402
30
0
10
79.386878784302354
20
-12.551359559384345
30
0
10
78.543181611167796
20
-14.14926788274231
30
0
10
76.128748316489364
20
-14.14926788274231
30
0
0
LINE
5
153
100
AcDbEntity
8
0
100
AcDbLine
10
76.128748316489364
20
-14.149267882742308
30
0
11
24.879106818075858
21
-14.14926788274231
31
0
0
SPLINE
5
154
100
AcDbEntity
8
0
100
AcDbSpline
70
1064
71
3
72
8
73
4
74
0
42
0.000000001
43
0.0000000001
44
0.0000000001
40
0
40
0
40
0
40
0
40
1
40
1
40
1
40
1
10
24.879106818075858
20
-14.14926788274231
30
0
10
21.20109887761112
20
-14.14926788274231
30
0
10
20.595173928678712
20
-12.602213920797169
30
0
10
20.00915647507717
20
-11.106139402924722
30
0
0
LINE
5
155
100
AcDbEntity
8
0
100
AcDbLine
10
20.00915647507717
20
-11.106139402924722
30
0
11
19.963209130011549
21
-10.987991514521893
31
0
0
LINE
5
156
100
AcDbEntity
8
0
100
AcDbLine
10
19.963209130011549
20
-10.987991514521893
30
0
11
17.317641960294786
21
-2.8247251874937906
31
0
0
LINE
5
157
100
AcDbEntity
8
0
100
AcDbLine
10
17.317641960294786
20
-2.8247251874937906
30
0
11
13.001899370467596
21
-2.8247251874937902
31
0
0
SPLINE
5
158
100
AcDbEntity
8
0
100
AcDbSpline
70
1064
71
3
72
8
73
4
74
0
42
0.000000001
43
0.0000000001
44
0.0000000001
40
0
40
0
40
0
40
0
40
1
40
1
40
1
40
1
10
13.001899370467596
20
-2.8247251874937902
30
0
10
13.150827977419276
20
-2.9261752488190251
30
0
10
13.289863253990289
20
-3.0405187363216561
30
0
10
13.421572934783253
20
-3.1627561196871796
30
0
0
SPLINE
5
159
100
AcDbEntity
8
0
100
AcDbSpline
70
1064
71
3
72
8
73
4
74
0
42
0.000000001
43
0.0000000001
44
0.0000000001
40
0
40
0
40
0
40
0
40
1
40
1
40
1
40
1
10
13.421572934783253
20
-3.1627561196871796
30
0
10
14.136551082720842
20
-3.8252184308808435
30
0
10
14.587067670910265
20
-4.7685833554400086
30
0
10
14.587067670910265
20
-5.8178531720559299
30
0
0
SPLINE
5
160
100
AcDbEntity
8
0
100
AcDbSpline
70
1064
71
3
72
8
73
4
74
0
42
0.000000001
43
0.0000000001
44
0.0000000001
40
0
40
0
40
0
40
0
40
1
40
1
40
1
40
1
10
14.587067670910265
20
-5.8178531720559299
30
0
10
14.587067670910265
20
-7.8155478608302875
30
0
10
12.961570832885345
20
-9.4410494189555809
30
0
10
10.963873312050765
20
-9.4410494189555809
30
0
0
SPLINE
5
161
100
AcDbEntity
8
0
100
AcDbSpline
70
1064
71
3
72
8
73
4
74
0
42
0.000000001
43
0.0000000001
44
0.0000000001
40
0
40
0
40
0
40
0
40
1
40
1
40
1
40
1
10
10.963873312050765
20
-9.4410494189555809
30
0
10
9.9773194690836426
20
-9.4410494189555809
30
0
10
9.0833551150225862
20
-9.0433913467971259
30
0
10
8.4290510253126723
20
-8.4019259301002869
30
0
0
LINE
5
162
100
AcDbEntity
8
0
100
AcDbLine
10
8.4290510253126723
20
-8.4019259301002869
30
0
11
10.478224072769091
21
-16.319826807457062
31
0
0
LINE
5
163
100
AcDbEntity
8
0
100
AcDbLine
10
10.478224072769091
20
-16.319826807457062
30
0
11
10.0437784823278
21
-16.319826807457062
31
0
0
LINE
5
164
100
AcDbEntity
8
0
100
AcDbLine
10
10.0437784823278
20
-16.319826807457062
30
0
11
7.7661978898081685
21
-7.5174716342696506
31
0
0
SPLINE
5
165
100
AcDbEntity
8
0
100
AcDbSpline
70
1064
71
3
72
8
73
4
74
0
42
0.000000001
43
0.0000000001
44
0.0000000001
40
0
40
0
40
0
40
0
40
1
40
1
40
1
40
1
10
7.7661978898081685
20
-7.5174716342696488
30
0
10
7.4954529324441888
20
-7.0100117551869374
30
0
10
7.3407846834396064
20
-6.4318117318222532
30
0
10
7.3407846834396064
20
-5.8178531720559299
30
0
0
SPLINE
5
166
100
AcDbEntity
8
0
100
AcDbSpline
70
1064
71
3
72
8
73
4
74
0
42
0.000000001
43
0.0000000001
44
0.0000000001
40
0
40
0
40
0
40
0
40
1
40
1
40
1
40
1
10
7.3407846834396064
20
-5.8178531720559299
30
0
10
7.3407846834396064
20
-4.9272854022228909
30
0
10
7.6650442507863232
20
-4.1119239356442403
30
0
10
8.199797638262714
20
-3.4807540018797987
30
0
0
SPLINE
5
167
100
AcDbEntity
8
0
100
AcDbSpline
70
1064
71
3
72
8
73
4
74
0
42
0.000000001
43
0.0000000001
44
0.0000000001
40
0
40
0
40
0
40
0
40
1
40
1
40
1
40
1
10
8.199797638262714
20
-3.4807540018797987
30
0
10
8.8649919435519546
20
-2.6947789361999739
30
0
10
9.8562281260885527
20
-2.1946559811362052
30
0
10
10.964024355262683
20
-2.1946559811362052
30
0
0
SPLINE
5
168
100
AcDbEntity
8
0
100
AcDbSpline
70
1064
71
3
72
8
73
4
74
0
42
0.000000001
43
0.0000000001
44
0.0000000001
40
0
40
0
40
0
40
0
40
1
40
1
40
1
40
1
10
10.964024355262683
20
-2.1946559811362052
30
0
10
11.407623164346237
20
-2.1946559811362052
30
0
10
11.831072808959856
20
-2.2783905617435449
30
0
10
12.224268498226197
20
-2.4252102278488104
30
0
0
LINE
5
169
100
AcDbEntity
8
0
100
AcDbLine
10
12.224268498226197
20
-2.4252102278488108
30
0
11
12.224268498226197
21
-2.4046891194695283
31
0
0
LINE
5
170
100
AcDbEntity
8
0
100
AcDbLine
10
12.224268498226197
20
-2.4046891194695283
30
0
11
17.181567130677376
21
-2.4046891194695283
31
0
0
LINE
5
171
100
AcDbEntity
8
0
100
AcDbLine
10
17.181567130677376
20
-2.4046891194695283
30
0
11
16.5883751245097
21
-0.5750252838541714
31
0
0
LINE
5
172
100
AcDbEntity
8
0
100
AcDbLine
10
16.5883751245097
20
-0.5750252838541714
30
0
11
16.987959941640192
21
-0.44498085447260832
31
0
0
SPLINE
5
173
100
AcDbEntity
8
0
100
AcDbSpline
70
1064
71
3
72
8
73
4
74
0
42
0.000000001
43
0.0000000001
44
0.0000000001
40
0
40
0
40
0
40
0
40
1
40
1
40
1
40
1
10
16.987959941640192
20
-0.44498085447260832
30
0
10
17.27205711893777
20
-0.31399618109685229
30
0
10
17.282886917232329
20
-0.32897400359872436
30
0
10
17.429776440823108
20
-0.44500728703469405
30
0
0
LINE
5
174
100
AcDbEntity
8
0
100
AcDbLine
10
17.429776440823108
20
-0.44500728703469405
30
0
11
17.429262893902585
21
-0.44482603518039182
31
0
0
LINE
5
175
100
AcDbEntity
8
0
100
AcDbLine
10
40.876969442997328
20
-0.44482603518039182
30
0
11
41.717132204972998
21
-0.44482603518039182
31
0
0
LINE
5
176
100
AcDbEntity
8
0
100
AcDbLine
10
41.717132204972998
20
-0.44482603518039182
30
0
11
41.717132204972998
21
-2.4045343001773118
31
0
0
LINE
5
177
100
AcDbEntity
8
0
100
AcDbLine
10
41.717132204972998
20
-2.4045343001773118
30
0
11
58.236939753000172
21
-2.4045343001773118
31
0
0
LINE
5
178
100
AcDbEntity
8
0
100
AcDbLine
10
58.236939753000172
20
-2.4045343001773118
30
0
11
58.236939753000165
21
-0.44482603518039177
31
0
0
LINE
5
179
100
AcDbEntity
8
0
100
AcDbLine
10
58.236939753000165
20
-0.44482603518039177
30
0
11
59.077094962815238
21
-0.44482603518039182
31
0
0
LINE
5
180
100
AcDbEntity
8
0
100
AcDbLine
10
59.077094962815238
20
-0.44482603518039182
30
0
11
59.077094962815252
21
-2.4045343001773118
31
0
0
LINE
5
181
100
AcDbEntity
8
0
100
AcDbLine
10
59.077094962815252
20
-2.4045343001773118
30
0
11
72.190485369728407
21
-2.4045343001773118
31
0
0
SPLINE
5
182
100
AcDbEntity
8
0
100
AcDbSpline
70
1064
71
3
72
8
73
4
74
0
42
0.000000001
43
0.0000000001
44
0.0000000001
40
0
40
0
40
0
40
0
40
1
40
1
40
1
40
1
10
72.190485369728393
20
-2.4045343001773118
30
0
10
71.90083735439282
20
-2.4938008384211678
30
0
10
71.635507296176115
20
-2.638096194847245
30
0
10
71.404894520218889
20
-2.8246137931250006
30
0
0
LINE
5
183
100
AcDbEntity
8
0
100
AcDbLine
10
71.404894520218903
20
-2.8246137931250006
30
0
11
59.076475685646379
21
-2.8246137931250006
31
0
0
LINE
5
184
100
AcDbEntity
8
0
100
AcDbLine
10
59.076475685646379
20
-2.8246137931250006
30
0
11
59.076475685646379
21
-6.657911147803337
31
0
0
LINE
5
185
100
AcDbEntity
8
0
100
AcDbLine
10
59.076475685646379
20
-6.657911147803337
30
0
11
58.236320475831306
21
-6.657911147803337
31
0
0
LINE
5
186
100
AcDbEntity
8
0
100
AcDbLine
10
58.236320475831306
20
-6.657911147803337
30
0
11
58.236320475831306
21
-2.8246137931250006
31
0
0
LINE
5
187
100
AcDbEntity
8
0
100
AcDbLine
10
58.236320475831306
20
-2.8246137931250006
30
0
11
41.716512927804139
21
-2.8246137931250006
31
0
0
LINE
5
188
100
AcDbEntity
8
0
100
AcDbLine
10
41.716512927804139
20
-2.8246137931250006
30
0
11
41.716512927804132
21
-6.6668208092663814
31
0
0
LINE
5
189
100
AcDbEntity
8
0
100
AcDbLine
10
41.716512927804132
20
-6.6668208092663814
30
0
11
60.635536166908928
21
-6.6668208092663814
31
0
0
SPLINE
5
190
100
AcDbEntity
8
0
100
AcDbSpline
70
1064
71
3
72
8
73
4
74
0
42
0.000000001
43
0.0000000001
44
0.0000000001
40
0
40
0
40
0
40
0
40
1
40
1
40
1
40
1
10
60.635536166908928
20
-6.6668208092663814
30
0
10
60.684474167570535
20
-6.9701193548791025
30
0
10
60.790498950176755
20
-7.2536690005334759
30
0
10
60.943626558419766
20
-7.5069788511416835
30
0
0
LINE
5
191
100
AcDbEntity
8
0
100
AcDbLine
10
60.943626558419773
20
-7.5069788511416835
30
0
11
38.983204756283889
21
-7.5069788511416835
31
0
0
SPLINE
5
192
100
AcDbEntity
8
0
100
AcDbSpline
70
1064
71
3
72
8
73
4
74
0
42
0.000000001
43
0.0000000001
44
0.0000000001
40
0
40
0
40
0
40
0
40
1
40
1
40
1
40
1
10
38.983204756283889
20
-7.5069788511416835
30
0
10
39.136332364526901
20
-7.2536690005334759
30
0
10
39.242349594972524
20
-6.9701193548791025
30
0
10
39.291287595634131
20
-6.6668208092663814
30
0
0
LINE
5
193
100
AcDbEntity
8
0
100
AcDbLine
10
39.291287595634131
20
-6.6668208092663814
30
0
11
40.876455896076806
21
-6.6668208092663814
31
0
0
LINE
5
194
100
AcDbEntity
8
0
100
AcDbLine
10
40.876455896076806
20
-6.6668208092663814
30
0
11
40.876455896076806
21
-2.8246137931250006
31
0
0
LINE
5
195
100
AcDbEntity
8
0
100
AcDbLine
10
40.876455896076806
20
-2.8246137931250006
30
0
11
28.618196633440451
21
-2.8246137931250006
31
0
0
SPLINE
5
196
100
AcDbEntity
8
0
100
AcDbSpline
70
1064
71
3
72
8
73
4
74
0
42
0.000000001
43
0.0000000001
44
0.0000000001
40
0
40
0
40
0
40
0
40
1
40
1
40
1
40
1
10
28.618196633440451
20
-2.8246137931250006
30
0
10
28.388006778476601
20
-2.638096194847245
30
0
10
28.122669168099307
20
-2.4937970623408696
30
0
10
27.833028704924317
20
-2.4045343001773118
30
0
0
LINE
5
197
100
AcDbEntity
8
0
100
AcDbLine
10
27.833028704924317
20
-2.4045343001773118
30
0
11
40.875897036192711
21
-2.4045343001773118
31
0
0
LINE
5
198
100
AcDbEntity
8
0
100
AcDbLine
10
40.875897036192711
20
-2.4045343001773118
30
0
11
40.876969442997328
21
-0.44482603518039182
31
0
0
SPLINE
5
199
100
AcDbEntity
8
0
100
AcDbSpline
70
1064
71
3
72
8
73
4
74
0
42
0.000000001
43
0.0000000001
44
0.0000000001
40
0
40
0
40
0
40
0
40
1
40
1
40
1
40
1
10
3.7355493624772196
20
-2.4918920298305474
30
0
10
4.3532707862604632
20
-2.4918920298305474
30
0
10
4.8558821782405897
20
-2.9945147500515672
30
0
10
4.8558821782405897
20
-3.6122465580556309
30
0
0
SPLINE
5
200
100
AcDbEntity
8
0
100
AcDbSpline
70
1064
71
3
72
8
73
4
74
0
42
0.000000001
43
0.0000000001
44
0.0000000001
40
0
40
0
40
0
40
0
40
1
40
1
40
1
40
1
10
4.8558821782405897
20
-3.6122465580556309
30
0
10
4.8558821782405897
20
-3.6622352530601452
30
0
10
4.847469071336727
20
-3.7101716484227172
30
0
10
4.8407627527275441
20
-3.7591068170241
30
0
0
LINE
5
201
100
AcDbEntity
8
0
100
AcDbLine
10
4.8407627527275441
20
-3.7591068170241004
30
0
11
2.6895147026565782
21
-3.2200571941887008
31
0
0
SPLINE
5
202
100
AcDbEntity
8
0
100
AcDbSpline
70
1064
71
3
72
8
73
4
74
0
42
0.000000001
43
0.0000000001
44
0.0000000001
40
0
40
0
40
0
40
0
40
1
40
1
40
1
40
1
10
2.6895147026565773
20
-3.2200571941887008
30
0
10
2.8491371690120881
20
-2.7957720918091553
30
0
10
3.2560928948842047
20
-2.4918920298305474
30
0
10
3.7356097797619867
20
-2.4918920298305474
30
0
0
LINE
5
203
100
AcDbEntity
8
0
100
AcDbLine
10
3.7356097797619863
20
-2.4918920298305474
30
0
11
3.7355493624772196
21
-2.4918920298305474
31
0
0
SPLINE
5
204
100
AcDbEntity
8
0
100
AcDbSpline
70
1064
71
3
72
8
73
4
74
0
42
0.000000001
43
0.0000000001
44
0.0000000001
40
0
40
0
40
0
40
0
40
1
40
1
40
1
40
1
10
27.137474714039453
20
-2.7195764555166999
30
0
10
27.356336328109414
20
-2.7195764555166999
30
0
10
27.565863471682807
20
-2.7575940319565961
30
0
10
27.762264960140485
20
-2.824596800763659
30
0
0
SPLINE
5
205
100
AcDbEntity
8
0
100
AcDbSpline
70
1064
71
3
72
8
73
4
74
0
42
0.000000001
43
0.0000000001
44
0.0000000001
40
0
40
0
40
0
40
0
40
1
40
1
40
1
40
1
10
27.762264960140485
20
-2.824596800763659
30
0
10
28.527434767398603
20
-3.085467308148464
30
0
10
29.080403966232371
20
-3.8096855245751708
30
0
10
29.080403966232371
20
-4.6624264100233619
30
0
0
SPLINE
5
206
100
AcDbEntity
8
0
100
AcDbSpline
70
1064
71
3
72
8
73
4
74
0
42
0.000000001
43
0.0000000001
44
0.0000000001
40
0
40
0
40
0
40
0
40
1
40
1
40
1
40
1
10
29.080403966232371
20
-4.6624264100233619
30
0
10
29.080403966232371
20
-5.7336343091503768
30
0
10
28.208522129753803
20
-6.6053065731724079
30
0
10
27.137520027003028
20
-6.6053065731724079
30
0
0
SPLINE
5
207
100
AcDbEntity
8
0
100
AcDbSpline
70
1064
71
3
72
8
73
4
74
0
42
0.000000001
43
0.0000000001
44
0.0000000001
40
0
40
0
40
0
40
0
40
1
40
1
40
1
40
1
10
27.137520027003028
20
-6.6053065731724079
30
0
10
26.06609500325888
20
-6.6053065731724079
30
0
10
25.194636087773684
20
-5.7336456373912714
30
0
10
25.194636087773684
20
-4.6624264100233619
30
0
0
SPLINE
5
208
100
AcDbEntity
8
0
100
AcDbSpline
70
1064
71
3
72
8
73
4
74
0
42
0.000000001
43
0.0000000001
44
0.0000000001
40
0
40
0
40
0
40
0
40
1
40
1
40
1
40
1
10
25.194636087773684
20
-4.6624264100233619
30
0
10
25.194636087773684
20
-3.8096600360331601
30
0
10
25.747303200183612
20
-3.085429547345484
30
0
10
26.512654259296035
20
-2.824596800763659
30
0
0
SPLINE
5
209
100
AcDbEntity
8
0
100
AcDbSpline
70
1064
71
3
72
8
73
4
74
0
42
0.000000001
43
0.0000000001
44
0.0000000001
40
0
40
0
40
0
40
0
40
1
40
1
40
1
40
1
10
26.512654259296035
20
-2.824596800763659
30
0
10
26.709070852074902
20
-2.7575940319565961
30
0
10
26.918597995648298
20
-2.7195764555166999
30
0
10
27.13745960971826
20
-2.7195764555166999
30
0
0
LINE
5
210
100
AcDbEntity
8
0
100
AcDbLine
10
27.13745960971826
20
-2.7195764555166999
30
0
11
27.137474714039453
21
-2.7195764555166999
31
0
0
SPLINE
5
211
100
AcDbEntity
8
0
100
AcDbSpline
70
1064
71
3
72
8
73
4
74
0
42
0.000000001
43
0.0000000001
44
0.0000000001
40
0
40
0
40
0
40
0
40
1
40
1
40
1
40
1
10
72.887104215257295
20
-2.7195764555166999
30
0
10
73.105965829327246
20
-2.7195764555166999
30
0
10
73.315908341733419
20
-2.7575940319565961
30
0
10
73.512287173709311
20
-2.824596800763659
30
0
0
SPLINE
5
212
100
AcDbEntity
8
0
100
AcDbSpline
70
1064
71
3
72
8
73
4
74
0
42
0.000000001
43
0.0000000001
44
0.0000000001
40
0
40
0
40
0
40
0
40
1
40
1
40
1
40
1
10
73.512287173709311
20
-2.824596800763659
30
0
10
74.277675993624712
20
-3.085467308148464
30
0
10
74.829935289362467
20
-3.8096855245751708
30
0
10
74.829935289362467
20
-4.6624264100233619
30
0
0
SPLINE
5
213
100
AcDbEntity
8
0
100
AcDbSpline
70
1064
71
3
72
8
73
4
74
0
42
0.000000001
43
0.0000000001
44
0.0000000001
40
0
40
0
40
0
40
0
40
1
40
1
40
1
40
1
10
74.829935289362467
20
-4.6624264100233619
30
0
10
74.829935289362467
20
-5.7336343091503768
30
0
10
73.958264913380575
20
-6.6053065731724079
30
0
10
72.88705135013312
20
-6.6053065731724079
30
0
0
SPLINE
5
214
100
AcDbEntity
8
0
100
AcDbSpline
70
1064
71
3
72
8
73
4
74
0
42
0.000000001
43
0.0000000001
44
0.0000000001
40
0
40
0
40
0
40
0
40
1
40
1
40
1
40
1
10
72.88705135013312
20
-6.6053065731724079
30
0
10
71.815422418052876
20
-6.6053065731724079
30
0
10
70.944167410903773
20
-5.7336456373912714
30
0
10
70.944167410903773
20
-4.6624264100233619
30
0
0
SPLINE
5
215
100
AcDbEntity
8
0
100
AcDbSpline
70
1064
71
3
72
8
73
4
74
0
42
0.000000001
43
0.0000000001
44
0.0000000001
40
0
40
0
40
0
40
0
40
1
40
1
40
1
40
1
10
70.944167410903773
20
-4.6624264100233619
30
0
10
70.944167410903773
20
-3.8096600360331601
30
0
10
71.496653271459408
20
-3.085429547345484
30
0
10
72.261815526556916
20
-2.824596800763659
30
0
0
SPLINE
5
216
100
AcDbEntity
8
0
100
AcDbSpline
70
1064
71
3
72
8
73
4
74
0
42
0.000000001
43
0.0000000001
44
0.0000000001
40
0
40
0
40
0
40
0
40
1
40
1
40
1
40
1
10
72.261815526556916
20
-2.824596800763659
30
0
10
72.458624831686777
20
-2.7575940319565961
30
0
10
72.668159527420769
20
-2.7195764555166999
30
0
10
72.887021141490735
20
-2.7195764555166999
30
0
0
LINE
5
217
100
AcDbEntity
8
0
100
AcDbLine
10
72.88702114149072
20
-2.7195764555166999
30
0
11
72.887104215257295
21
-2.7195764555166999
31
0
0
SPLINE
5
218
100
AcDbEntity
8
0
100
AcDbSpline
70
1064
71
3
72
8
73
4
74
0
42
0.000000001
43
0.0000000001
44
0.0000000001
40
0
40
0
40
0
40
0
40
1
40
1
40
1
40
1
10
96.292745229832718
20
-2.8069587296918721
30
0
10
96.910474205776552
20
-2.8069587296918721
30
0
10
97.412677781084511
20
-3.3093832056972494
30
0
10
97.412677781084511
20
-3.9269054412447755
30
0
0
SPLINE
5
219
100
AcDbEntity
8
0
100
AcDbSpline
70
1064
71
3
72
8
73
4
74
0
42
0.000000001
43
0.0000000001
44
0.0000000001
40
0
40
0
40
0
40
0
40
1
40
1
40
1
40
1
10
97.412677781084511
20
-3.9269054412447755
30
0
10
97.412677781084511
20
-3.977104652725902
30
0
10
97.404483686837921
20
-4.0254498087807278
30
0
10
97.397973724404224
20
-4.0741744609054988
30
0
0
LINE
5
220
100
AcDbEntity
8
0
100
AcDbLine
10
97.397973724404238
20
-4.0741744609054988
30
0
11
95.246725674333263
21
-3.5351248380701001
31
0
0
SPLINE
5
221
100
AcDbEntity
8
0
100
AcDbSpline
70
1064
71
3
72
8
73
4
74
0
42
0.000000001
43
0.0000000001
44
0.0000000001
40
0
40
0
40
0
40
0
40
1
40
1
40
1
40
1
10
95.246725674333263
20
-3.5351248380701001
30
0
10
95.406355692849374
20
-3.1108387916704805
30
0
10
95.813092406064214
20
-2.8069587296918721
30
0
10
96.292828303599265
20
-2.8069587296918721
30
0
0
LINE
5
222
100
AcDbEntity
8
0
100
AcDbLine
10
96.292828303599265
20
-2.8069587296918721
30
0
11
96.292745229832718
21
-2.8069587296918721
31
0
0
SPLINE
5
223
100
AcDbEntity
8
0
100
AcDbSpline
70
1064
71
3
72
8
73
4
74
0
42
0.000000001
43
0.0000000001
44
0.0000000001
40
0
40
0
40
0
40
0
40
1
40
1
40
1
40
1
10
10.964130085511027
20
-3.0346431553780251
30
0
10
10.372659971959223
20
-3.0346431553780251
30
0
10
9.8250225985061803
20
-3.2208756595932844
30
0
10
9.3736450640088229
20
-3.5363624483877576
30
0
0
SPLINE
5
224
100
AcDbEntity
8
0
100
AcDbSpline
70
1064
71
3
72
8
73
4
74
0
42
0.000000001
43
0.0000000001
44
0.0000000001
40
0
40
0
40
0
40
0
40
1
40
1
40
1
40
1
10
9.3736450640088229
20
-3.5363624483877576
30
0
10
8.6538486376110306
20
-4.0400368069717612
30
0
10
8.1810984886271996
20
-4.873933163692965
30
0
10
8.1810984886271996
20
-5.817657759900511
30
0
0
SPLINE
5
225
100
AcDbEntity
8
0
100
AcDbSpline
70
1064
71
3
72
8
73
4
74
0
42
0.000000001
43
0.0000000001
44
0.0000000001
40
0
40
0
40
0
40
0
40
1
40
1
40
1
40
1
10
8.1810984886271996
20
-5.817657759900511
30
0
10
8.1810984886271996
20
-7.351966978829986
30
0
10
9.4295763653822586
20
-8.6006969089449328
30
0
10
10.964130085511027
20
-8.6006969089449328
30
0
0
SPLINE
5
226
100
AcDbEntity
8
0
100
AcDbSpline
70
1064
71
3
72
8
73
4
74
0
42
0.000000001
43
0.0000000001
44
0.0000000001
40
0
40
0
40
0
40
0
40
1
40
1
40
1
40
1
10
10.964130085511027
20
-8.6006969089449328
30
0
10
12.498442136500724
20
-8.6006969089449328
30
0
10
13.747161682394854
20
-7.351966978829986
30
0
10
13.747161682394854
20
-5.817657759900511
30
0
0
SPLINE
5
227
100
AcDbEntity
8
0
100
AcDbSpline
70
1064
71
3
72
8
73
4
74
0
42
0.000000001
43
0.0000000001
44
0.0000000001
40
0
40
0
40
0
40
0
40
1
40
1
40
1
40
1
10
13.747161682394854
20
-5.817657759900511
30
0
10
13.747161682394854
20
-4.7418345466293097
30
0
10
13.132491331492364
20
-3.8087027996776261
30
0
10
12.237469674947876
20
-3.3455637190721861
30
0
0
SPLINE
5
228
100
AcDbEntity
8
0
100
AcDbSpline
70
1064
71
3
72
8
73
4
74
0
42
0.000000001
43
0.0000000001
44
0.0000000001
40
0
40
0
40
0
40
0
40
1
40
1
40
1
40
1
10
12.237469674947876
20
-3.3455637190721861
30
0
10
11.855194409903248
20
-3.1481200324522733
30
0
10
11.422833215786435
20
-3.0346053945750451
30
0
10
10.964114981189834
20
-3.0346053945750451
30
0
0
LINE
5
229
100
AcDbEntity
8
0
100
AcDbLine
10
10.964114981189834
20
-3.0346053945750451
30
0
11
10.964130085511027
21
-3.0346431553780251
31
0
0
SPLINE
5
230
100
AcDbEntity
8
0
100
AcDbSpline
70
1064
71
3
72
8
73
4
74
0
42
0.000000001
43
0.0000000001
44
0.0000000001
40
0
40
0
40
0
40
0
40
1
40
1
40
1
40
1
10
89.133463132427138
20
-3.0346431553780251
30
0
10
87.599151081437441
20
-3.0346431553780251
30
0
10
86.350423983382711
20
-4.2827538083241059
30
0
10
86.350423983382711
20
-5.8176823044224477
30
0
0
SPLINE
5
231
100
AcDbEntity
8
0
100
AcDbSpline
70
1064
71
3
72
8
73
4
74
0
42
0.000000001
43
0.0000000001
44
0.0000000001
40
0
40
0
40
0
40
0
40
1
40
1
40
1
40
1
10
86.350423983382711
20
-5.8176823044224477
30
0
10
86.350423983382711
20
-7.3519915233519226
30
0
10
87.599151081437441
20
-8.6007214534668694
30
0
10
89.133463132427138
20
-8.6007214534668694
30
0
0
SPLINE
5
232
100
AcDbEntity
8
0
100
AcDbSpline
70
1064
71
3
72
8
73
4
74
0
42
0.000000001
43
0.0000000001
44
0.0000000001
40
0
40
0
40
0
40
0
40
1
40
1
40
1
40
1
10
89.133463132427138
20
-8.6007214534668694
30
0
10
90.667775183416822
20
-8.6007214534668694
30
0
10
91.916502281471551
20
-7.3519915233519226
30
0
10
91.916502281471551
20
-5.8176823044224477
30
0
0
SPLINE
5
233
100
AcDbEntity
8
0
100
AcDbSpline
70
1064
71
3
72
8
73
4
74
0
42
0.000000001
43
0.0000000001
44
0.0000000001
40
0
40
0
40
0
40
0
40
1
40
1
40
1
40
1
10
91.916502281471551
20
-5.8176823044224477
30
0
10
91.916502281471551
20
-4.2827547523441805
30
0
10
90.667775183416822
20
-3.0346431553780251
30
0
10
89.133463132427138
20
-3.0346431553780251
30
0
0
SPLINE
5
234
100
AcDbEntity
8
0
100
AcDbSpline
70
1064
71
3
72
8
73
4
74
0
42
0.000000001
43
0.0000000001
44
0.0000000001
40
0
40
0
40
0
40
0
40
1
40
1
40
1
40
1
10
10.964130085511027
20
-3.2971959065355723
30
0
10
11.223531697659922
20
-3.2971959065355723
30
0
10
11.473855612772518
20
-3.3365067904775207
30
0
10
11.709513232007819
20
-3.4096003768051992
30
0
0
SPLINE
5
235
100
AcDbEntity
8
0
100
AcDbSpline
70
1064
71
3
72
8
73
4
74
0
42
0.000000001
43
0.0000000001
44
0.0000000001
40
0
40
0
40
0
40
0
40
1
40
1
40
1
40
1
10
11.709513232007819
20
-3.4096003768051992
30
0
10
12.736607073053875
20
-3.7280192919510413
30
0
10
13.48460326711686
20
-4.687284346624855
30
0
10
13.48460326711686
20
-5.817722897285651
30
0
0
SPLINE
5
236
100
AcDbEntity
8
0
100
AcDbSpline
70
1064
71
3
72
8
73
4
74
0
42
0.000000001
43
0.0000000001
44
0.0000000001
40
0
40
0
40
0
40
0
40
1
40
1
40
1
40
1
10
13.48460326711686
20
-5.817722897285651
30
0
10
13.48460326711686
20
-7.2073865283414129
30
0
10
12.353742739482767
20
-8.3381970229115581
30
0
10
10.964130085511027
20
-8.3381970229115581
30
0
0
SPLINE
5
237
100
AcDbEntity
8
0
100
AcDbSpline
70
1064
71
3
72
8
73
4
74
0
42
0.000000001
43
0.0000000001
44
0.0000000001
40
0
40
0
40
0
40
0
40
1
40
1
40
1
40
1
10
10.964130085511027
20
-8.3381970229115581
30
0
10
9.574336179684984
20
-8.3381970229115581
30
0
10
8.443656903905195
20
-7.2073374392975396
30
0
10
8.443656903905195
20
-5.817722897285651
30
0
0
SPLINE
5
238
100
AcDbEntity
8
0
100
AcDbSpline
70
1064
71
3
72
8
73
4
74
0
42
0.000000001
43
0.0000000001
44
0.0000000001
40
0
40
0
40
0
40
0
40
1
40
1
40
1
40
1
10
8.443656903905195
20
-5.817722897285651
30
0
10
8.443656903905195
20
-4.8046949553495075
30
0
10
9.0453375385826895
20
-3.9320078697473986
30
0
10
9.9085494946971338
20
-3.531850032431691
30
0
0
SPLINE
5
239
100
AcDbEntity
8
0
100
AcDbSpline
70
1064
71
3
72
8
73
4
74
0
42
0.000000001
43
0.0000000001
44
0.0000000001
40
0
40
0
40
0
40
0
40
1
40
1
40
1
40
1
10
9.9085494946971338
20
-3.531850032431691
30
0
10
10.230543413865071
20
-3.382514552827907
30
0
10
10.586642890284217
20
-3.29719968261587
30
0
10
10.964084772547452
20
-3.29719968261587
30
0
0
LINE
5
240
100
AcDbEntity
8
0
100
AcDbLine
10
10.964084772547452
20
-3.29719968261587
30
0
11
10.964130085511027
21
-3.2971959065355723
31
0
0
SPLINE
5
241
100
AcDbEntity
8
0
100
AcDbSpline
70
1064
71
3
72
8
73
4
74
0
42
0.000000001
43
0.0000000001
44
0.0000000001
40
0
40
0
40
0
40
0
40
1
40
1
40
1
40
1
10
89.133463132427138
20
-3.2971959065355723
30
0
10
90.523249486092567
20
-3.2971959065355723
30
0
10
91.653936314032975
20
-4.4276354012164418
30
0
10
91.653936314032975
20
-5.8176700321614794
30
0
0
SPLINE
5
242
100
AcDbEntity
8
0
100
AcDbSpline
70
1064
71
3
72
8
73
4
74
0
42
0.000000001
43
0.0000000001
44
0.0000000001
40
0
40
0
40
0
40
0
40
1
40
1
40
1
40
1
10
91.653936314032975
20
-5.8176700321614794
30
0
10
91.653936314032975
20
-7.2073336632172413
30
0
10
90.523287246895563
20
-8.3381441577873865
30
0
10
89.133463132427138
20
-8.3381441577873865
30
0
0
SPLINE
5
243
100
AcDbEntity
8
0
100
AcDbSpline
70
1064
71
3
72
8
73
4
74
0
42
0.000000001
43
0.0000000001
44
0.0000000001
40
0
40
0
40
0
40
0
40
1
40
1
40
1
40
1
10
89.133463132427138
20
-8.3381441577873865
30
0
10
87.743639017958714
20
-8.3381441577873865
30
0
10
86.612989950821316
20
-7.207284574173368
30
0
10
86.612989950821316
20
-5.8176700321614794
30
0
0
SPLINE
5
244
100
AcDbEntity
8
0
100
AcDbSpline
70
1064
71
3
72
8
73
4
74
0
42
0.000000001
43
0.0000000001
44
0.0000000001
40
0
40
0
40
0
40
0
40
1
40
1
40
1
40
1
10
86.612989950821316
20
-5.8176700321614794
30
0
10
86.612989950821316
20
-4.4276354012164418
30
0
10
87.743639017958714
20
-3.2971959065355723
30
0
10
89.133463132427138
20
-3.2971959065355723
30
0
0
LINE
5
245
100
AcDbEntity
8
0
100
AcDbLine
10
2.6169988566144875
20
-3.6352268387289621
30
0
11
4.7063796070836208
21
-4.1586859700341448
31
0
0
SPLINE
5
246
100
AcDbEntity
8
0
100
AcDbSpline
70
1064
71
3
72
8
73
4
74
0
42
0.000000001
43
0.0000000001
44
0.0000000001
40
0
40
0
40
0
40
0
40
1
40
1
40
1
40
1
10
4.7063796070836208
20
-4.1586859700341448
30
0
10
4.5139807637417881
20
-4.4991666343208383
30
0
10
4.1529270699717147
20
-4.7321961016687579
30
0
10
3.7349451896295447
20
-4.7321961016687579
30
0
0
SPLINE
5
247
100
AcDbEntity
8
0
100
AcDbSpline
70
1064
71
3
72
8
73
4
74
0
42
0.000000001
43
0.0000000001
44
0.0000000001
40
0
40
0
40
0
40
0
40
1
40
1
40
1
40
1
10
3.7349451896295447
20
-4.7321961016687579
30
0
10
3.1249873869389138
20
-4.7321961016687579
30
0
10
2.6296562777732606
20
-4.2422440188875541
30
0
10
2.6170441695780635
20
-3.6352268387289621
30
0
0
LINE
5
248
100
AcDbEntity
8
0
100
AcDbLine
10
2.6170441695780635
20
-3.6352268387289621
30
0
11
2.6169988566144875
21
-3.6352268387289621
31
0
0
LINE
5
249
100
AcDbEntity
8
0
100
AcDbLine
10
95.174194723969975
20
-3.9502925945702123
30
0
11
97.263575474439108
21
-4.4737517258753954
31
0
0
SPLINE
5
250
100
AcDbEntity
8
0
100
AcDbSpline
70
1064
71
3
72
8
73
4
74
0
42
0.000000001
43
0.0000000001
44
0.0000000001
40
0
40
0
40
0
40
0
40
1
40
1
40
1
40
1
10
97.263575474439122
20
-4.4737517258753954
30
0
10
97.071184183257884
20
-4.8144429066386998
30
0
10
96.710122937327213
20
-5.0472618575100086
30
0
10
96.292133504824449
20
-5.0472618575100086
30
0
0
SPLINE
5
251
100
AcDbEntity
8
0
100
AcDbSpline
70
1064
71
3
72
8
73
4
74
0
42
0.000000001
43
0.0000000001
44
0.0000000001
40
0
40
0
40
0
40
0
40
1
40
1
40
1
40
1
10
96.292133504824449
20
-5.0472618575100086
30
0
10
95.682379610469908
20
-5.0472618575100086
30
0
10
95.187259961800933
20
-4.5573097747288047
30
0
10
95.174240036933568
20
-3.9502925945702123
30
0
0
LINE
5
252
100
AcDbEntity
8
0
100
AcDbLine
10
95.174240036933568
20
-3.9502925945702123
30
0
11
95.174194723969975
21
-3.9502925945702123
31
0
0
SPLINE
5
253
100
AcDbEntity
8
0
100
AcDbSpline
70
1064
71
3
72
8
73
4
74
0
42
0.000000001
43
0.0000000001
44
0.0000000001
40
0
40
0
40
0
40
0
40
1
40
1
40
1
40
1
10
36.962020015995975
20
-4.3473936948847189
30
0
10
38.033445039740123
20
-4.3473936948847189
30
0
10
38.904903955225322
20
-5.2188563864502129
30
0
10
38.904903955225322
20
-6.2902738580337649
30
0
0
SPLINE
5
254
100
AcDbEntity
8
0
100
AcDbSpline
70
1064
71
3
72
8
73
4
74
0
42
0.000000001
43
0.0000000001
44
0.0000000001
40
0
40
0
40
0
40
0
40
1
40
1
40
1
40
1
10
38.904903955225322
20
-6.2902738580337649
30
0
10
38.904903955225322
20
-6.4190325320738708
30
0
10
38.89146110936457
20
-6.5446230747439857
30
0
10
38.867158256566874
20
-6.6668727303704785
30
0
0
SPLINE
5
255
100
AcDbEntity
8
0
100
AcDbSpline
70
1064
71
3
72
8
73
4
74
0
42
0.000000001
43
0.0000000001
44
0.0000000001
40
0
40
0
40
0
40
0
40
1
40
1
40
1
40
1
10
38.867158256566874
20
-6.6668727303704785
30
0
10
38.805185226716702
20
-6.9806763313721341
30
0
10
38.667630173622484
20
-7.2671713196589192
30
0
10
38.473751106803853
20
-7.5070307722457805
30
0
0
SPLINE
5
256
100
AcDbEntity
8
0
100
AcDbSpline
70
1064
71
3
72
8
73
4
74
0
42
0.000000001
43
0.0000000001
44
0.0000000001
40
0
40
0
40
0
40
0
40
1
40
1
40
1
40
1
10
38.473751106803853
20
-7.5070307722457805
30
0
10
38.117515691493985
20
-7.9489614978577094
30
0
10
37.572400739679978
20
-8.2331426929419163
30
0
10
36.961959598711204
20
-8.2331426929419163
30
0
0
SPLINE
5
257
100
AcDbEntity
8
0
100
AcDbSpline
70
1064
71
3
72
8
73
4
74
0
42
0.000000001
43
0.0000000001
44
0.0000000001
40
0
40
0
40
0
40
0
40
1
40
1
40
1
40
1
10
36.961959598711204
20
-8.2331426929419163
30
0
10
36.351171058355028
20
-8.2331426929419163
30
0
10
35.806494131855587
20
-7.9489492255967411
30
0
10
35.44980558690996
20
-7.5070307722457805
30
0
0
SPLINE
5
258
100
AcDbEntity
8
0
100
AcDbSpline
70
1064
71
3
72
8
73
4
74
0
42
0.000000001
43
0.0000000001
44
0.0000000001
40
0
40
0
40
0
40
0
40
1
40
1
40
1
40
1
10
35.44980558690996
20
-7.5070307722457805
30
0
10
35.256153084909201
20
-7.2671590473979508
30
0
10
35.118552718851411
20
-6.9806640591111657
30
0
10
35.056383332825746
20
-6.6668727303704785
30
0
0
SPLINE
5
259
100
AcDbEntity
8
0
100
AcDbSpline
70
1064
71
3
72
8
73
4
74
0
42
0.000000001
43
0.0000000001
44
0.0000000001
40
0
40
0
40
0
40
0
40
1
40
1
40
1
40
1
10
35.056383332825746
20
-6.6668727303704785
30
0
10
35.032442983736651
20
-6.5446287388644331
30
0
10
35.019060555160671
20
-6.4190325320738708
30
0
10
35.019060555160671
20
-6.2902738580337649
30
0
0
SPLINE
5
260
100
AcDbEntity
8
0
100
AcDbSpline
70
1064
71
3
72
8
73
4
74
0
42
0.000000001
43
0.0000000001
44
0.0000000001
40
0
40
0
40
0
40
0
40
1
40
1
40
1
40
1
10
35.019060555160671
20
-6.2902738580337649
30
0
10
35.019060555160671
20
-5.2188563864502129
30
0
10
35.890504366324677
20
-4.3473936948847189
30
0
10
36.961944494390018
20
-4.3473936948847189
30
0
0
LINE
5
261
100
AcDbEntity
8
0
100
AcDbLine
10
36.961944494390018
20
-4.3473936948847189
30
0
11
36.962020015995975
21
-4.3473936948847189
31
0
0
SPLINE
5
262
100
AcDbEntity
8
0
100
AcDbSpline
70
1064
71
3
72
8
73
4
74
0
42
0.000000001
43
0.0000000001
44
0.0000000001
40
0
40
0
40
0
40
0
40
1
40
1
40
1
40
1
10
62.966087613848394
20
-4.3473936948847189
30
0
10
64.037505085431945
20
-4.3473936948847189
30
0
10
64.908971553077748
20
-5.2188563864502129
30
0
10
64.908971553077748
20
-6.2902738580337649
30
0
0
SPLINE
5
263
100
AcDbEntity
8
0
100
AcDbSpline
70
1064
71
3
72
8
73
4
74
0
42
0.000000001
43
0.0000000001
44
0.0000000001
40
0
40
0
40
0
40
0
40
1
40
1
40
1
40
1
10
64.908971553077748
20
-6.2902738580337649
30
0
10
64.908971553077748
20
-6.4190325320738708
30
0
10
64.895528707216982
20
-6.5446230747439857
30
0
10
64.871648775412666
20
-6.6668727303704785
30
0
0
SPLINE
5
264
100
AcDbEntity
8
0
100
AcDbSpline
70
1064
71
3
72
8
73
4
74
0
42
0.000000001
43
0.0000000001
44
0.0000000001
40
0
40
0
40
0
40
0
40
1
40
1
40
1
40
1
10
64.871648775412666
20
-6.6668727303704785
30
0
10
64.80969084988368
20
-6.9806763313721341
30
0
10
64.671486310978224
20
-7.2671713196589192
30
0
10
64.477826256816869
20
-7.5070307722457805
30
0
0
SPLINE
5
265
100
AcDbEntity
8
0
100
AcDbSpline
70
1064
71
3
72
8
73
4
74
0
42
0.000000001
43
0.0000000001
44
0.0000000001
40
0
40
0
40
0
40
0
40
1
40
1
40
1
40
1
10
64.477826256816869
20
-7.5070307722457805
30
0
10
64.121386933170911
20
-7.9489614978577094
30
0
10
63.576898810686366
20
-8.2331426929419163
30
0
10
62.966163135454352
20
-8.2331426929419163
30
0
0
SPLINE
5
266
100
AcDbEntity
8
0
100
AcDbSpline
70
1064
71
3
72
8
73
4
74
0
42
0.000000001
43
0.0000000001
44
0.0000000001
40
0
40
0
40
0
40
0
40
1
40
1
40
1
40
1
10
62.966163135454352
20
-8.2331426929419163
30
0
10
62.355359490776976
20
-8.2331426929419163
30
0
10
61.810274747605362
20
-7.9489492255967411
30
0
10
61.4536315156233
20
-7.5070307722457805
30
0
0
SPLINE
5
267
100
AcDbEntity
8
0
100
AcDbSpline
70
1064
71
3
72
8
73
4
74
0
42
0.000000001
43
0.0000000001
44
0.0000000001
40
0
40
0
40
0
40
0
40
1
40
1
40
1
40
1
10
61.4536315156233
20
-7.5070307722457805
30
0
10
61.260182921958645
20
-7.2671590473979508
30
0
10
61.122582555900848
20
-6.9806640591111657
30
0
10
61.060624630371869
20
-6.6668727303704785
30
0
0
SPLINE
5
268
100
AcDbEntity
8
0
100
AcDbSpline
70
1064
71
3
72
8
73
4
74
0
42
0.000000001
43
0.0000000001
44
0.0000000001
40
0
40
0
40
0
40
0
40
1
40
1
40
1
40
1
10
61.060624630371869
20
-6.6668727303704785
30
0
10
61.036684281282774
20
-6.5446287388644331
30
0
10
61.023294300546205
20
-6.4190325320738708
30
0
10
61.023294300546205
20
-6.2902738580337649
30
0
0
SPLINE
5
269
100
AcDbEntity
8
0
100
AcDbSpline
70
1064
71
3
72
8
73
4
74
0
42
0.000000001
43
0.0000000001
44
0.0000000001
40
0
40
0
40
0
40
0
40
1
40
1
40
1
40
1
10
61.023294300546205
20
-6.2902738580337649
30
0
10
61.023294300546205
20
-5.2188563864502129
30
0
10
61.894964676528083
20
-4.3473936948847189
30
0
10
62.966178239775545
20
-4.3473936948847189
30
0
0
LINE
5
270
100
AcDbEntity
8
0
100
AcDbLine
10
62.966178239775545
20
-4.3473936948847189
30
0
11
62.966087613848394
21
-4.3473936948847189
31
0
0
SPLINE
5
271
100
AcDbEntity
8
0
100
AcDbSpline
70
1064
71
3
72
8
73
4
74
0
42
0.000000001
43
0.0000000001
44
0.0000000001
40
0
40
0
40
0
40
0
40
1
40
1
40
1
40
1
10
10.964145189832218
20
-4.5574334413585635
30
0
10
10.269119850189066
20
-4.5574334413585635
30
0
10
9.7039010468687064
20
-5.1224426722223857
30
0
10
9.7039010468687064
20
-5.8176700321614794
30
0
0
SPLINE
5
272
100
AcDbEntity
8
0
100
AcDbSpline
70
1064
71
3
72
8
73
4
74
0
42
0.000000001
43
0.0000000001
44
0.0000000001
40
0
40
0
40
0
40
0
40
1
40
1
40
1
40
1
10
9.7039010468687064
20
-5.8176700321614794
30
0
10
9.7039010468687064
20
-6.5124895754283916
30
0
10
10.269119850189066
20
-7.0779066229643952
30
0
10
10.964145189832218
20
-7.0779066229643952
30
0
0
SPLINE
5
273
100
AcDbEntity
8
0
100
AcDbSpline
70
1064
71
3
72
8
73
4
74
0
42
0.000000001
43
0.0000000001
44
0.0000000001
40
0
40
0
40
0
40
0
40
1
40
1
40
1
40
1
10
10.964145189832218
20
-7.0779066229643952
30
0
10
11.658747608481999
20
-7.0779066229643952
30
0
10
12.224389332795731
20
-6.5124763591473487
30
0
10
12.224389332795731
20
-5.8176700321614794
30
0
0
SPLINE
5
274
100
AcDbEntity
8
0
100
AcDbSpline
70
1064
71
3
72
8
73
4
74
0
42
0.000000001
43
0.0000000001
44
0.0000000001
40
0
40
0
40
0
40
0
40
1
40
1
40
1
40
1
10
12.224389332795731
20
-5.8176700321614794
30
0
10
12.224389332795731
20
-5.1224303999614182
30
0
10
11.658747608481999
20
-4.5574334413585635
30
0
10
10.964145189832218
20
-4.5574334413585635
30
0
0
SPLINE
5
275
100
AcDbEntity
8
0
100
AcDbSpline
70
1064
71
3
72
8
73
4
74
0
42
0.000000001
43
0.0000000001
44
0.0000000001
40
0
40
0
40
0
40
0
40
1
40
1
40
1
40
1
10
89.133478236748331
20
-4.5574334413585635
30
0
10
88.438656805441269
20
-4.5574334413585635
30
0
10
87.873241645945399
20
-5.1224426722223857
30
0
10
87.873241645945399
20
-5.8176700321614794
30
0
0
SPLINE
5
276
100
AcDbEntity
8
0
100
AcDbSpline
70
1064
71
3
72
8
73
4
74
0
42
0.000000001
43
0.0000000001
44
0.0000000001
40
0
40
0
40
0
40
0
40
1
40
1
40
1
40
1
10
87.873241645945399
20
-5.8176700321614794
30
0
10
87.873241645945399
20
-6.5124895754283916
30
0
10
88.438671909762462
20
-7.0779066229643952
30
0
10
89.133478236748331
20
-7.0779066229643952
30
0
0
SPLINE
5
277
100
AcDbEntity
8
0
100
AcDbSpline
70
1064
71
3
72
8
73
4
74
0
42
0.000000001
43
0.0000000001
44
0.0000000001
40
0
40
0
40
0
40
0
40
1
40
1
40
1
40
1
10
89.133478236748331
20
-7.0779066229643952
30
0
10
89.82851112855208
20
-7.0779066229643952
30
0
10
90.393714827551236
20
-6.5124763591473487
30
0
10
90.393714827551236
20
-5.8176700321614794
30
0
0
SPLINE
5
278
100
AcDbEntity
8
0
100
AcDbSpline
70
1064
71
3
72
8
73
4
74
0
42
0.000000001
43
0.0000000001
44
0.0000000001
40
0
40
0
40
0
40
0
40
1
40
1
40
1
40
1
10
90.393714827551236
20
-5.8176700321614794
30
0
10
90.393714827551236
20
-5.1224303999614182
30
0
10
89.828496024230887
20
-4.5574334413585635
30
0
10
89.133478236748331
20
-4.5574334413585635
30
0
0
SPLINE
5
279
100
AcDbEntity
8
0
100
AcDbSpline
70
1064
71
3
72
8
73
4
74
0
42
0.000000001
43
0.0000000001
44
0.0000000001
40
0
40
0
40
0
40
0
40
1
40
1
40
1
40
1
10
10.964145189832218
20
-4.9249989856024738
30
0
10
11.456259078584006
20
-4.9249989856024738
30
0
10
11.856810572270778
20
-5.3251322783962447
30
0
10
11.856810572270778
20
-5.8176700321614794
30
0
0
SPLINE
5
280
100
AcDbEntity
8
0
100
AcDbSpline
70
1064
71
3
72
8
73
4
74
0
42
0.000000001
43
0.0000000001
44
0.0000000001
40
0
40
0
40
0
40
0
40
1
40
1
40
1
40
1
10
11.856810572270778
20
-5.8176700321614794
30
0
10
11.856810572270778
20
-6.3095894527779217
30
0
10
11.456259078584006
20
-6.710341078720484
30
0
10
10.964145189832218
20
-6.710341078720484
30
0
0
SPLINE
5
281
100
AcDbEntity
8
0
100
AcDbSpline
70
1064
71
3
72
8
73
4
74
0
42
0.000000001
43
0.0000000001
44
0.0000000001
40
0
40
0
40
0
40
0
40
1
40
1
40
1
40
1
10
10.964145189832218
20
-6.710341078720484
30
0
10
10.471804736262554
20
-6.710341078720484
30
0
10
10.07147980739366
20
-6.3095894527779217
30
0
10
10.07147980739366
20
-5.8176700321614794
30
0
0
SPLINE
5
282
100
AcDbEntity
8
0
100
AcDbSpline
70
1064
71
3
72
8
73
4
74
0
42
0.000000001
43
0.0000000001
44
0.0000000001
40
0
40
0
40
0
40
0
40
1
40
1
40
1
40
1
10
10.07147980739366
20
-5.8176700321614794
30
0
10
10.07147980739366
20
-5.3251322783962447
30
0
10
10.471804736262554
20
-4.9249989856024738
30
0
10
10.964145189832218
20
-4.9249989856024738
30
0
0
SPLINE
5
283
100
AcDbEntity
8
0
100
AcDbSpline
70
1064
71
3
72
8
73
4
74
0
42
0.000000001
43
0.0000000001
44
0.0000000001
40
0
40
0
40
0
40
0
40
1
40
1
40
1
40
1
10
89.133478236748331
20
-4.9249989856024738
30
0
10
89.625607229821313
20
-4.9249989856024738
30
0
10
90.026151171347493
20
-5.3251322783962447
30
0
10
90.026151171347493
20
-5.8176700321614794
30
0
0
SPLINE
5
284
100
AcDbEntity
8
0
100
AcDbSpline
70
1064
71
3
72
8
73
4
74
0
42
0.000000001
43
0.0000000001
44
0.0000000001
40
0
40
0
40
0
40
0
40
1
40
1
40
1
40
1
10
90.026151171347493
20
-5.8176700321614794
30
0
10
90.026151171347493
20
-6.3095894527779217
30
0
10
89.625599677660702
20
-6.710341078720484
30
0
10
89.133478236748331
20
-6.710341078720484
30
0
0
SPLINE
5
285
100
AcDbEntity
8
0
100
AcDbSpline
70
1064
71
3
72
8
73
4
74
0
42
0.000000001
43
0.0000000001
44
0.0000000001
40
0
40
0
40
0
40
0
40
1
40
1
40
1
40
1
10
89.133478236748331
20
-6.710341078720484
30
0
10
88.641356795835947
20
-6.710341078720484
30
0
10
88.24080530214917
20
-6.3095894527779217
30
0
10
88.24080530214917
20
-5.8176700321614794
30
0
0
SPLINE
5
286
100
AcDbEntity
8
0
100
AcDbSpline
70
1064
71
3
72
8
73
4
74
0
42
0.000000001
43
0.0000000001
44
0.0000000001
40
0
40
0
40
0
40
0
40
1
40
1
40
1
40
1
10
88.24080530214917
20
-5.8176700321614794
30
0
10
88.24080530214917
20
-5.3251322783962447
30
0
10
88.641356795835947
20
-4.9249989856024738
30
0
10
89.133478236748331
20
-4.9249989856024738
30
0
0
SPLINE
5
287
100
AcDbEntity
8
0
100
AcDbSpline
70
1064
71
3
72
8
73
4
74
0
42
0.000000001
43
0.0000000001
44
0.0000000001
40
0
40
0
40
0
40
0
40
1
40
1
40
1
40
1
10
10.964145189832218
20
-5.7651570274777768
30
0
10
10.935159997465052
20
-5.7651570274777768
30
0
10
10.911627465048143
20
-5.7884714912574768
30
0
10
10.911627465048143
20
-5.8176662560811812
30
0
0
SPLINE
5
288
100
AcDbEntity
8
0
100
AcDbSpline
70
1064
71
3
72
8
73
4
74
0
42
0.000000001
43
0.0000000001
44
0.0000000001
40
0
40
0
40
0
40
0
40
1
40
1
40
1
40
1
10
10.911627465048143
20
-5.8176662560811812
30
0
10
10.911627465048143
20
-5.8752174959024419
30
0
10
11.016647810295101
20
-5.8752174959024419
30
0
10
11.016647810295101
20
-5.8176662560811812
30
0
0
SPLINE
5
289
100
AcDbEntity
8
0
100
AcDbSpline
70
1064
71
3
72
8
73
4
74
0
42
0.000000001
43
0.0000000001
44
0.0000000001
40
0
40
0
40
0
40
0
40
1
40
1
40
1
40
1
10
11.016647810295101
20
-5.8176662560811812
30
0
10
11.016647810295101
20
-5.7884714912574768
30
0
10
10.992918921702699
20
-5.7651570274777768
30
0
10
10.964145189832218
20
-5.7651570274777768
30
0
0
SPLINE
5
290
100
AcDbEntity
8
0
100
AcDbSpline
70
1064
71
3
72
8
73
4
74
0
42
0.000000001
43
0.0000000001
44
0.0000000001
40
0
40
0
40
0
40
0
40
1
40
1
40
1
40
1
10
89.133478236748331
20
-5.7651570274777768
30
0
10
89.104704504877844
20
-5.7651570274777768
30
0
10
89.080968064124846
20
-5.7884714912574768
30
0
10
89.080968064124846
20
-5.8176662560811812
30
0
0
SPLINE
5
291
100
AcDbEntity
8
0
100
AcDbSpline
70
1064
71
3
72
8
73
4
74
0
42
0.000000001
43
0.0000000001
44
0.0000000001
40
0
40
0
40
0
40
0
40
1
40
1
40
1
40
1
10
89.080968064124846
20
-5.8176662560811812
30
0
10
89.080968064124846
20
-5.8752174959024419
30
0
10
89.185988409371802
20
-5.8752174959024419
30
0
10
89.185988409371802
20
-5.8176662560811812
30
0
0
SPLINE
5
292
100
AcDbEntity
8
0
100
AcDbSpline
70
1064
71
3
72
8
73
4
74
0
42
0.000000001
43
0.0000000001
44
0.0000000001
40
0
40
0
40
0
40
0
40
1
40
1
40
1
40
1
10
89.185988409371802
20
-5.8176662560811812
30
0
10
89.185988409371802
20
-5.7884714912574768
30
0
10
89.162251968618804
20
-5.7651570274777768
30
0
10
89.133478236748331
20
-5.7651570274777768
30
0
0
SPLINE
5
293
100
AcDbEntity
8
0
100
AcDbSpline
70
1064
71
3
72
8
73
4
74
0
42
0.000000001
43
0.0000000001
44
0.0000000001
40
0
40
0
40
0
40
0
40
1
40
1
40
1
40
1
10
50.336503719031512
20
-8.6621554478545111
30
0
10
51.279375865111795
20
-8.6621554478545111
30
0
10
52.043548787171254
20
-9.4262783368500216
30
0
10
52.043548787171254
20
-10.369197683934029
30
0
0
SPLINE
5
294
100
AcDbEntity
8
0
100
AcDbSpline
70
1064
71
3
72
8
73
4
74
0
42
0.000000001
43
0.0000000001
44
0.0000000001
40
0
40
0
40
0
40
0
40
1
40
1
40
1
40
1
10
52.043548787171254
20
-10.369197683934029
30
0
10
52.043548787171254
20
-11.311857425497546
30
0
10
51.279421178075367
20
-12.076239920013542
30
0
10
50.336503719031512
20
-12.076239920013542
30
0
0
SPLINE
5
295
100
AcDbEntity
8
0
100
AcDbSpline
70
1064
71
3
72
8
73
4
74
0
42
0.000000001
43
0.0000000001
44
0.0000000001
40
0
40
0
40
0
40
0
40
1
40
1
40
1
40
1
10
50.336503719031512
20
-12.076239920013542
30
0
10
49.393827929126729
20
-12.076239920013542
30
0
10
48.62945865089177
20
-11.311918786802389
30
0
10
48.62945865089177
20
-10.369197683934029
30
0
0
SPLINE
5
296
100
AcDbEntity
8
0
100
AcDbSpline
70
1064
71
3
72
8
73
4
74
0
42
0.000000001
43
0.0000000001
44
0.0000000001
40
0
40
0
40
0
40
0
40
1
40
1
40
1
40
1
10
48.62945865089177
20
-10.369197683934029
30
0
10
48.62945865089177
20
-9.4263274258938949
30
0
10
49.393767511841958
20
-8.6621554478545111
30
0
10
50.336503719031512
20
-8.6621554478545111
30
0
0
LINE
5
297
100
AcDbEntity
8
0
100
AcDbLine
10
8.2853032005297997
20
-17.160618758812383
30
0
11
91.460940850004064
21
-17.160618758812383
31
0
0
SPLINE
5
298
100
AcDbEntity
8
0
100
AcDbSpline
70
1064
71
3
72
8
73
4
74
0
42
0.000000001
43
0.0000000001
44
0.0000000001
40
0
40
0
40
0
40
0
40
1
40
1
40
1
40
1
10
91.46094085000405
20
-17.160618758812383
30
0
10
92.619094886031817
20
-17.160618758812383
30
0
10
93.561332650622049
20
-18.127171589460012
30
0
10
93.561332650622049
20
-19.315580583856399
30
0
0
LINE
5
299
100
AcDbEntity
8
0
100
AcDbLine
10
93.561332650622035
20
-19.315580583856399
30
0
11
93.561332650622049
21
-53.653169473191426
31
0
0
SPLINE
5
300
100
AcDbEntity
8
0
100
AcDbSpline
70
1064
71
3
72
8
73
4
74
0
42
0.000000001
43
0.0000000001
44
0.0000000001
40
0
40
0
40
0
40
0
40
1
40
1
40
1
40
1
10
93.561332650622049
20
-53.653169473191426
30
0
10
93.561332650622049
20
-54.841369780150089
30
0
10
92.619094886031817
20
-55.808503242144781
30
0
10
91.46094085000405
20
-55.808503242144781
30
0
0
LINE
5
301
100
AcDbEntity
8
0
100
AcDbLine
10
91.46094085000405
20
-55.808503242144781
30
0
11
8.2853032005297855
21
-55.808503242144781
31
0
0
SPLINE
5
302
100
AcDbEntity
8
0
100
AcDbSpline
70
1064
71
3
72
8
73
4
74
0
42
0.000000001
43
0.0000000001
44
0.0000000001
40
0
40
0
40
0
40
0
40
1
40
1
40
1
40
1
10
8.2853032005297997
20
-55.808503242144781
30
0
10
7.1271491645020273
20
-55.808503242144781
30
0
10
6.1849113999118046
20
-54.841320691106212
30
0
10
6.1849113999118046
20
-53.653169473191426
30
0
0
LINE
5
303
100
AcDbEntity
8
0
100
AcDbLine
10
6.1849113999118055
20
-53.653169473191426
30
0
11
6.1849113999118046
21
-19.315579639836326
31
0
0
SPLINE
5
304
100
AcDbEntity
8
0
100
AcDbSpline
70
1064
71
3
72
8
73
4
74
0
42
0.000000001
43
0.0000000001
44
0.0000000001
40
0
40
0
40
0
40
0
40
1
40
1
40
1
40
1
10
6.1849113999118046
20
-19.315579639836322
30
0
10
6.1849113999118046
20
-18.127170704441191
30
0
10
7.1271491645020273
20
-17.16061781479231
30
0
10
8.2853032005297997
20
-17.160618758812383
30
0
0
SPLINE
5
305
100
AcDbEntity
8
0
100
AcDbSpline
70
1064
71
3
72
8
73
4
74
0
42
0.000000001
43
0.0000000001
44
0.0000000001
40
0
40
0
40
0
40
0
40
1
40
1
40
1
40
1
10
15.066086113188717
20
-23.566853682746419
30
0
10
13.647714831667688
20
-23.566853682746419
30
0
10
12.536580547510157
20
-24.298953994785087
30
0
10
12.536580547510157
20
-25.233682551692773
30
0
0
LINE
5
306
100
AcDbEntity
8
0
100
AcDbLine
10
12.536580547510157
20
-25.233682551692773
30
0
11
12.536580547510157
21
-41.861139068864318
31
0
0
SPLINE
5
307
100
AcDbEntity
8
0
100
AcDbSpline
70
1064
71
3
72
8
73
4
74
0
42
0.000000001
43
0.0000000001
44
0.0000000001
40
0
40
0
40
0
40
0
40
1
40
1
40
1
40
1
10
12.536580547510157
20
-41.861139068864318
30
0
10
12.536580547510157
20
-42.796028581194705
30
0
10
13.647699727346495
20
-43.5287108816093
30
0
10
15.066086113188717
20
-43.5287108816093
30
0
0
LINE
5
308
100
AcDbEntity
8
0
100
AcDbLine
10
41.338527289978003
20
-24.407011252611682
30
0
11
41.338648124547525
21
-24.407011724621718
31
0
0
SPLINE
5
309
100
AcDbEntity
8
0
100
AcDbSpline
70
1064
71
3
72
8
73
4
74
0
42
0.000000001
43
0.0000000001
44
0.0000000001
40
0
40
0
40
0
40
0
40
1
40
1
40
1
40
1
10
29.219469451445768
20
-24.686788122038354
30
0
10
34.141756267374234
20
-24.686788122038354
30
0
10
38.146183693116122
20
-28.691458632949427
30
0
10
38.146183693116122
20
-33.613496227578224
30
0
0
SPLINE
5
310
100
AcDbEntity
8
0
100
AcDbSpline
70
1064
71
3
72
8
73
4
74
0
42
0.000000001
43
0.0000000001
44
0.0000000001
40
0
40
0
40
0
40
0
40
1
40
1
40
1
40
1
10
38.146183693116122
20
-33.613496227578224
30
0
10
38.146183693116122
20
-38.535783043506683
30
0
10
34.141756267374234
20
-42.540576749037477
30
0
10
29.219469451445768
20
-42.540576749037477
30
0
0
SPLINE
5
311
100
AcDbEntity
8
0
100
AcDbSpline
70
1064
71
3
72
8
73
4
74
0
42
0.000000001
43
0.0000000001
44
0.0000000001
40
0
40
0
40
0
40
0
40
1
40
1
40
1
40
1
10
29.219469451445768
20
-42.540576749037477
30
0
10
28.98400818838596
20
-42.540576749037477
30
0
10
28.750646425971816
20
-42.528289383747904
30
0
10
28.519595624700035
20
-42.510218951481995
30
0
0
SPLINE
5
312
100
AcDbEntity
8
0
100
AcDbSpline
70
1064
71
3
72
8
73
4
74
0
42
0.000000001
43
0.0000000001
44
0.0000000001
40
0
40
0
40
0
40
0
40
1
40
1
40
1
40
1
10
28.519595624700035
20
-42.510218951481995
30
0
10
23.92347152058846
20
-42.151474330814132
30
0
10
20.292725001133036
20
-38.299902635533797
30
0
10
20.292725001133036
20
-33.613453746674871
30
0
0
SPLINE
5
313
100
AcDbEntity
8
0
100
AcDbSpline
70
1064
71
3
72
8
73
4
74
0
42
0.000000001
43
0.0000000001
44
0.0000000001
40
0
40
0
40
0
40
0
40
1
40
1
40
1
40
1
10
20.292725001133036
20
-33.613453746674871
30
0
10
20.292725001133036
20
-28.926882135206252
30
0
10
23.92347152058846
20
-25.07527173510287
30
0
10
28.519595624700035
20
-24.71668854186774
30
0
0
SPLINE
5
314
100
AcDbEntity
8
0
100
AcDbSpline
70
1064
71
3
72
8
73
4
74
0
42
0.000000001
43
0.0000000001
44
0.0000000001
40
0
40
0
40
0
40
0
40
1
40
1
40
1
40
1
10
28.519595624700035
20
-24.71668854186774
30
0
10
28.750646425971816
20
-24.698625661762431
30
0
10
28.98402329270715
20
-24.68674092103463
30
0
10
29.219469451445768
20
-24.68674092103463
30
0
0
LINE
5
315
100
AcDbEntity
8
0
100
AcDbLine
10
29.219469451445768
20
-24.68674092103463
30
0
11
29.219469451445768
21
-24.686788122038354
31
0
0
SPLINE
5
316
100
AcDbEntity
8
0
100
AcDbSpline
70
1064
71
3
72
8
73
4
74
0
42
0.000000001
43
0.0000000001
44
0.0000000001
40
0
40
0
40
0
40
0
40
1
40
1
40
1
40
1
10
29.219469451445768
20
-26.507406357299939
30
0
10
28.983600371713777
20
-26.507406357299939
30
0
10
28.749800583985078
20
-26.519189615869735
30
0
10
28.519595624700035
20
-26.541864978059007
30
0
0
SPLINE
5
317
100
AcDbEntity
8
0
100
AcDbSpline
70
1064
71
3
72
8
73
4
74
0
42
0.000000001
43
0.0000000001
44
0.0000000001
40
0
40
0
40
0
40
0
40
1
40
1
40
1
40
1
10
28.519595624700035
20
-26.541864978059007
30
0
10
24.928573469979177
20
-26.894731185723018
30
0
10
22.113354564635511
20
-29.93145071325489
30
0
10
22.113354564635511
20
-33.613915372491292
30
0
0
SPLINE
5
318
100
AcDbEntity
8
0
100
AcDbSpline
70
1064
71
3
72
8
73
4
74
0
42
0.000000001
43
0.0000000001
44
0.0000000001
40
0
40
0
40
0
40
0
40
1
40
1
40
1
40
1
10
22.113354564635511
20
-33.613915372491292
30
0
10
22.113354564635511
20
-37.295886309228749
30
0
10
24.928558365657988
20
-40.332209820339372
30
0
10
28.519595624700035
20
-40.685099628505242
30
0
0
SPLINE
5
319
100
AcDbEntity
8
0
100
AcDbSpline
70
1064
71
3
72
8
73
4
74
0
42
0.000000001
43
0.0000000001
44
0.0000000001
40
0
40
0
40
0
40
0
40
1
40
1
40
1
40
1
10
28.519595624700035
20
-40.685099628505242
30
0
10
28.749800583985078
20
-40.707784430895259
30
0
10
28.983600371713777
20
-40.719969842016788
30
0
10
29.219469451445768
20
-40.719969842016788
30
0
0
SPLINE
5
320
100
AcDbEntity
8
0
100
AcDbSpline
70
1064
71
3
72
8
73
4
74
0
42
0.000000001
43
0.0000000001
44
0.0000000001
40
0
40
0
40
0
40
0
40
1
40
1
40
1
40
1
10
29.219469451445768
20
-40.719969842016788
30
0
10
33.138149645781503
20
-40.719969842016788
30
0
10
36.325916633322244
20
-37.532195302315451
30
0
10
36.325916633322244
20
-33.613891771989437
30
0
0
SPLINE
5
321
100
AcDbEntity
8
0
100
AcDbSpline
70
1064
71
3
72
8
73
4
74
0
42
0.000000001
43
0.0000000001
44
0.0000000001
40
0
40
0
40
0
40
0
40
1
40
1
40
1
40
1
10
36.325916633322244
20
-33.613891771989437
30
0
10
36.325916633322244
20
-29.695217241774145
30
0
10
33.138149645781503
20
-26.507442702072805
30
0
10
29.219469451445768
20
-26.507442702072805
30
0
0
LINE
5
322
100
AcDbEntity
8
0
100
AcDbLine
10
29.219469451445768
20
-26.507442702072808
30
0
11
29.219469451445768
21
-26.507406357299939
31
0
0
SPLINE
5
323
100
AcDbEntity
8
0
100
AcDbSpline
70
1064
71
3
72
8
73
4
74
0
42
0.000000001
43
0.0000000001
44
0.0000000001
40
0
40
0
40
0
40
0
40
1
40
1
40
1
40
1
10
29.219469451445768
20
-27.347563927165204
30
0
10
32.674628237045894
20
-27.347563927165204
30
0
10
35.485753871346574
20
-30.158566838856196
30
0
10
35.485753871346574
20
-33.613854955206527
30
0
0
SPLINE
5
324
100
AcDbEntity
8
0
100
AcDbSpline
70
1064
71
3
72
8
73
4
74
0
42
0.000000001
43
0.0000000001
44
0.0000000001
40
0
40
0
40
0
40
0
40
1
40
1
40
1
40
1
10
35.485753871346574
20
-33.613854955206527
30
0
10
35.485753871346574
20
-37.069019404927104
30
0
10
32.674628237045894
20
-39.87977498335858
30
0
10
29.219469451445768
20
-39.87977498335858
30
0
0
SPLINE
5
325
100
AcDbEntity
8
0
100
AcDbSpline
70
1064
71
3
72
8
73
4
74
0
42
0.000000001
43
0.0000000001
44
0.0000000001
40
0
40
0
40
0
40
0
40
1
40
1
40
1
40
1
10
29.219469451445768
20
-39.87977498335858
30
0
10
28.982754529727039
20
-39.87977498335858
30
0
10
28.749377662991705
20
-39.865197425368287
30
0
10
28.519595624700035
20
-39.839571056426159
30
0
0
SPLINE
5
326
100
AcDbEntity
8
0
100
AcDbSpline
70
1064
71
3
72
8
73
4
74
0
42
0.000000001
43
0.0000000001
44
0.0000000001
40
0
40
0
40
0
40
0
40
1
40
1
40
1
40
1
10
28.519595624700035
20
-39.839571056426159
30
0
10
25.39269905156246
20
-39.490057064046667
30
0
10
22.953517326611184
20
-36.832325251650012
30
0
10
22.953517326611184
20
-33.613864395407276
30
0
0
SPLINE
5
327
100
AcDbEntity
8
0
100
AcDbSpline
70
1064
71
3
72
8
73
4
74
0
42
0.000000001
43
0.0000000001
44
0.0000000001
40
0
40
0
40
0
40
0
40
1
40
1
40
1
40
1
10
22.953517326611184
20
-33.613864395407276
30
0
10
22.953517326611184
20
-30.395156205905018
30
0
10
25.39269905156246
20
-27.736841933122406
30
0
10
28.519595624700035
20
-27.387292067980077
30
0
0
SPLINE
5
328
100
AcDbEntity
8
0
100
AcDbSpline
70
1064
71
3
72
8
73
4
74
0
42
0.000000001
43
0.0000000001
44
0.0000000001
40
0
40
0
40
0
40
0
40
1
40
1
40
1
40
1
10
28.519595624700035
20
-27.387292067980077
30
0
10
28.749377662991705
20
-27.361666643058022
30
0
10
28.982754529727039
20
-27.347500677820214
30
0
10
29.219469451445768
20
-27.347500677820214
30
0
0
LINE
5
329
100
AcDbEntity
8
0
100
AcDbLine
10
29.219469451445768
20
-27.347500677820214
30
0
11
29.219469451445768
21
-27.347563927165204
31
0
0
SPLINE
5
330
100
AcDbEntity
8
0
100
AcDbSpline
70
1064
71
3
72
8
73
4
74
0
42
0.000000001
43
0.0000000001
44
0.0000000001
40
0
40
0
40
0
40
0
40
1
40
1
40
1
40
1
10
29.219469451445768
20
-27.87963535360997
30
0
10
28.982331608733666
20
-27.87963535360997
30
0
10
28.749166202495019
20
-27.895577020607895
30
0
10
28.519595624700035
20
-27.923940103745974
30
0
0
SPLINE
5
331
100
AcDbEntity
8
0
100
AcDbSpline
70
1064
71
3
72
8
73
4
74
0
42
0.000000001
43
0.0000000001
44
0.0000000001
40
0
40
0
40
0
40
0
40
1
40
1
40
1
40
1
10
28.519595624700035
20
-27.923940103745974
30
0
10
25.686810393810241
20
-28.270298237016448
30
0
10
23.485204536885632
20
-30.689037207254621
30
0
10
23.485204536885632
20
-33.613875723648164
30
0
0
SPLINE
5
332
100
AcDbEntity
8
0
100
AcDbSpline
70
1064
71
3
72
8
73
4
74
0
42
0.000000001
43
0.0000000001
44
0.0000000001
40
0
40
0
40
0
40
0
40
1
40
1
40
1
40
1
10
23.485204536885632
20
-33.613875723648164
30
0
10
23.485204536885632
20
-36.538219573522682
30
0
10
25.686810393810241
20
-38.957106754912552
30
0
10
28.519595624700035
20
-39.303439399641015
30
0
0
SPLINE
5
333
100
AcDbEntity
8
0
100
AcDbSpline
70
1064
71
3
72
8
73
4
74
0
42
0.000000001
43
0.0000000001
44
0.0000000001
40
0
40
0
40
0
40
0
40
1
40
1
40
1
40
1
10
28.519595624700035
20
-39.303439399641015
30
0
10
28.749166202495019
20
-39.331584414141886
30
0
10
28.982331608733666
20
-39.347742261736869
30
0
10
29.219469451445768
20
-39.347742261736869
30
0
0
SPLINE
5
334
100
AcDbEntity
8
0
100
AcDbSpline
70
1064
71
3
72
8
73
4
74
0
42
0.000000001
43
0.0000000001
44
0.0000000001
40
0
40
0
40
0
40
0
40
1
40
1
40
1
40
1
10
29.219469451445768
20
-39.347742261736869
30
0
10
32.381257006536522
20
-39.347742261736869
30
0
10
34.953704157363525
20
-36.775423497639999
30
0
10
34.953704157363525
20
-33.613881387768615
30
0
0
SPLINE
5
335
100
AcDbEntity
8
0
100
AcDbSpline
70
1064
71
3
72
8
73
4
74
0
42
0.000000001
43
0.0000000001
44
0.0000000001
40
0
40
0
40
0
40
0
40
1
40
1
40
1
40
1
10
34.953704157363525
20
-33.613881387768615
30
0
10
34.953704157363525
20
-30.451967333987881
30
0
10
32.381136171966986
20
-27.87964856989101
30
0
10
29.219469451445768
20
-27.87964856989101
30
0
0
LINE
5
336
100
AcDbEntity
8
0
100
AcDbLine
10
29.219469451445764
20
-27.879648569891007
30
0
11
29.219469451445768
21
-27.87963535360997
31
0
0
SPLINE
5
337
100
AcDbEntity
8
0
100
AcDbSpline
70
1064
71
3
72
8
73
4
74
0
42
0.000000001
43
0.0000000001
44
0.0000000001
40
0
40
0
40
0
40
0
40
1
40
1
40
1
40
1
10
29.219469451445768
20
-29.139871944412885
30
0
10
30.028124599415236
20
-29.139871944412885
30
0
10
30.785213594835717
20
-29.358721286221879
30
0
10
31.440499465423098
20
-29.7355306750352
30
0
0
LINE
5
338
100
AcDbEntity
8
0
100
AcDbLine
10
31.440499465423098
20
-29.7355306750352
30
0
11
31.049554320014344
21
-30.417345397755927
31
0
0
SPLINE
5
339
100
AcDbEntity
8
0
100
AcDbSpline
70
1064
71
3
72
8
73
4
74
0
42
0.000000001
43
0.0000000001
44
0.0000000001
40
0
40
0
40
0
40
0
40
1
40
1
40
1
40
1
10
31.049554320014352
20
-30.417345397755927
30
0
10
31.609320463384449
20
-30.738498195037494
30
0
10
32.076950247484241
20
-31.202800308374709
30
0
10
32.402463473489881
20
-31.760484887480555
30
0
0
LINE
5
340
100
AcDbEntity
8
0
100
AcDbLine
10
32.402463473489881
20
-31.760484887480555
30
0
11
33.080571973398158
21
-31.364608181202662
31
0
0
SPLINE
5
341
100
AcDbEntity
8
0
100
AcDbSpline
70
1064
71
3
72
8
73
4
74
0
42
0.000000001
43
0.0000000001
44
0.0000000001
40
0
40
0
40
0
40
0
40
1
40
1
40
1
40
1
10
33.080571973398158
20
-31.364608181202666
30
0
10
33.465792581075192
20
-32.023297244158591
30
0
10
33.690741236585481
20
-32.786442128356931
30
0
10
33.69305219772783
20
-33.602471961148318
30
0
0
LINE
5
342
100
AcDbEntity
8
0
100
AcDbLine
10
33.693052197727823
20
-33.602471961148325
30
0
11
32.901691497523032
21
-33.613954077314347
31
0
0
SPLINE
5
343
100
AcDbEntity
8
0
100
AcDbSpline
70
1064
71
3
72
8
73
4
74
0
42
0.000000001
43
0.0000000001
44
0.0000000001
40
0
40
0
40
0
40
0
40
1
40
1
40
1
40
1
10
32.901691497523032
20
-33.613954077314354
30
0
10
32.901691497523032
20
-34.261086446518355
30
0
10
32.731813197078253
20
-34.897204933513279
30
0
10
32.410242198903688
20
-35.453887907320095
30
0
0
LINE
5
344
100
AcDbEntity
8
0
100
AcDbLine
10
32.410242198903688
20
-35.453887907320095
30
0
11
33.089997069821877
21
-35.846892904531387
31
0
0
SPLINE
5
345
100
AcDbEntity
8
0
100
AcDbSpline
70
1064
71
3
72
8
73
4
74
0
42
0.000000001
43
0.0000000001
44
0.0000000001
40
0
40
0
40
0
40
0
40
1
40
1
40
1
40
1
10
33.089997069821877
20
-35.846892904531387
30
0
10
32.6974357620456
20
-36.52469931801582
30
0
10
32.133410200099391
20
-37.089064727188841
30
0
10
31.456449628601696
20
-37.482539846397231
30
0
0
LINE
5
346
100
AcDbEntity
8
0
100
AcDbLine
10
31.456449628601696
20
-37.482539846397231
30
0
11
31.062634662166495
21
-36.802371494686419
31
0
0
SPLINE
5
347
100
AcDbEntity
8
0
100
AcDbSpline
70
1064
71
3
72
8
73
4
74
0
42
0.000000001
43
0.0000000001
44
0.0000000001
40
0
40
0
40
0
40
0
40
1
40
1
40
1
40
1
10
31.062634662166495
20
-36.802371494686412
30
0
10
30.506448242918861
20
-37.124576874351042
30
0
10
29.870284442960365
20
-37.295663520491168
30
0
10
29.223200218780153
20
-37.296296013941074
30
0
0
LINE
5
348
100
AcDbEntity
8
0
100
AcDbLine
10
29.223200218780153
20
-37.296296013941074
30
0
11
29.223200218780153
21
-38.087231905112347
31
0
0
LINE
5
349
100
AcDbEntity
8
0
100
AcDbLine
10
29.223200218780153
20
-38.087231905112347
30
0
11
29.218623609459023
21
-38.087603849021697
31
0
0
SPLINE
5
350
100
AcDbEntity
8
0
100
AcDbSpline
70
1064
71
3
72
8
73
4
74
0
42
0.000000001
43
0.0000000001
44
0.0000000001
40
0
40
0
40
0
40
0
40
1
40
1
40
1
40
1
10
29.218623609459023
20
-38.087603849021704
30
0
10
28.98002064759131
20
-38.087603849021704
30
0
10
28.747474518521528
20
-38.063425606873842
30
0
10
28.518749782713289
20
-38.027301734703371
30
0
0
SPLINE
5
351
100
AcDbEntity
8
0
100
AcDbSpline
70
1064
71
3
72
8
73
4
74
0
42
0.000000001
43
0.0000000001
44
0.0000000001
40
0
40
0
40
0
40
0
40
1
40
1
40
1
40
1
10
28.518749782713289
20
-38.027301734703371
30
0
10
27.969496246892717
20
-37.94034426956172
30
0
10
27.453381591767073
20
-37.755036905019466
30
0
10
26.989391949074516
20
-37.48702771783136
30
0
0
LINE
5
352
100
AcDbEntity
8
0
100
AcDbLine
10
26.989391949074523
20
-37.48702771783136
30
0
11
27.381983465493182
21
-36.806449661408216
31
0
0
SPLINE
5
353
100
AcDbEntity
8
0
100
AcDbSpline
70
1064
71
3
72
8
73
4
74
0
42
0.000000001
43
0.0000000001
44
0.0000000001
40
0
40
0
40
0
40
0
40
1
40
1
40
1
40
1
10
27.381983465493178
20
-36.806449661408216
30
0
10
26.822851703613139
20
-36.484034709287052
30
0
10
26.356007344215321
20
-36.018334502219517
30
0
10
26.031913924401714
20
-35.460463951158999
30
0
0
LINE
5
354
100
AcDbEntity
8
0
100
AcDbLine
10
26.031913924401707
20
-35.460463951158999
30
0
11
25.352566870155705
21
-35.854694286426977
31
0
0
SPLINE
5
355
100
AcDbEntity
8
0
100
AcDbSpline
70
1064
71
3
72
8
73
4
74
0
42
0.000000001
43
0.0000000001
44
0.0000000001
40
0
40
0
40
0
40
0
40
1
40
1
40
1
40
1
10
25.352566870155705
20
-35.854694286426977
30
0
10
24.969234302627648
20
-35.196425312404202
30
0
10
24.746052852696817
20
-34.434221616220128
30
0
10
24.745010654534578
20
-33.619304783096567
30
0
0
LINE
5
356
100
AcDbEntity
8
0
100
AcDbLine
10
24.745010654534582
20
-33.61930478309656
30
0
11
25.53635625041818
21
-33.613972013695765
31
0
0
SPLINE
5
357
100
AcDbEntity
8
0
100
AcDbSpline
70
1064
71
3
72
8
73
4
74
0
42
0.000000001
43
0.0000000001
44
0.0000000001
40
0
40
0
40
0
40
0
40
1
40
1
40
1
40
1
10
25.53635625041818
20
-33.613972013695765
30
0
10
25.53635625041818
20
-32.969363954170944
30
0
10
25.705086622452381
20
-32.335298710838039
30
0
10
26.02413519898791
20
-31.780225291258233
30
0
0
LINE
5
358
100
AcDbEntity
8
0
100
AcDbLine
10
26.02413519898791
20
-31.780225291258233
30
0
11
25.343156878053183
21
-31.38844468808356
31
0
0
SPLINE
5
359
100
AcDbEntity
8
0
100
AcDbSpline
70
1064
71
3
72
8
73
4
74
0
42
0.000000001
43
0.0000000001
44
0.0000000001
40
0
40
0
40
0
40
0
40
1
40
1
40
1
40
1
10
25.343156878053183
20
-31.38844468808356
30
0
10
25.734041606177165
20
-30.709809424973717
30
0
10
26.297296847742583
20
-30.144416921959653
30
0
10
26.973849602568102
20
-29.749579581783774
30
0
0
LINE
5
360
100
AcDbEntity
8
0
100
AcDbLine
10
26.973849602568102
20
-29.749579581783774
30
0
11
27.368903123341038
21
-30.42893230015023
31
0
0
SPLINE
5
361
100
AcDbEntity
8
0
100
AcDbSpline
70
1064
71
3
72
8
73
4
74
0
42
0.000000001
43
0.0000000001
44
0.0000000001
40
0
40
0
40
0
40
0
40
1
40
1
40
1
40
1
10
27.368903123341035
20
-30.42893230015023
30
0
10
27.72492707815422
20
-30.221416863355572
30
0
10
28.114467521692127
20
-30.077142275371138
30
0
10
28.518795095676865
20
-29.99900384576538
30
0
0
SPLINE
5
362
100
AcDbEntity
8
0
100
AcDbSpline
70
1064
71
3
72
8
73
4
74
0
42
0.000000001
43
0.0000000001
44
0.0000000001
40
0
40
0
40
0
40
0
40
1
40
1
40
1
40
1
10
28.518795095676865
20
-29.99900384576538
30
0
10
28.744589593173885
20
-29.955526057214627
30
0
10
28.975081534561575
20
-29.932154008210382
30
0
10
29.207174533995598
20
-29.931313830344088
30
0
0
LINE
5
363
100
AcDbEntity
8
0
100
AcDbLine
10
29.207174533995598
20
-29.931313830344081
30
0
11
29.204697425320134
21
-29.140785755844991
31
0
0
LINE
5
364
100
AcDbEntity
8
0
100
AcDbLine
10
29.204697425320134
20
-29.140785755844991
30
0
11
29.219469451445768
21
-29.139871944412885
31
0
0
SPLINE
5
365
100
AcDbEntity
8
0
100
AcDbSpline
70
1064
71
3
72
8
73
4
74
0
42
0.000000001
43
0.0000000001
44
0.0000000001
40
0
40
0
40
0
40
0
40
1
40
1
40
1
40
1
10
9.7807669374140502
20
-45.165977761922974
30
0
10
8.2642779854307395
20
-45.165977761922974
30
0
10
7.0301492138079418
20
-46.390938210582313
30
0
10
7.0301492138079418
20
-47.89655393934764
30
0
0
LINE
5
366
100
AcDbEntity
8
0
100
AcDbLine
10
7.0301492138079427
20
-47.89655393934764
30
0
11
7.0301492138079418
21
-51.362236660738184
31
0
0
SPLINE
5
367
100
AcDbEntity
8
0
100
AcDbSpline
70
1064
71
3
72
8
73
4
74
0
42
0.000000001
43
0.0000000001
44
0.0000000001
40
0
40
0
40
0
40
0
40
1
40
1
40
1
40
1
10
7.0301492138079418
20
-51.362236660738184
30
0
10
7.0301492138079418
20
-52.867839173222471
30
0
10
8.2642930897519307
20
-54.092810950122711
30
0
10
9.7807669374140502
20
-54.092810950122711
30
0
0
LINE
5
368
100
AcDbEntity
8
0
100
AcDbLine
10
9.7807669374140502
20
-54.092810950122711
30
0
11
89.957071558376526
21
-54.092810950122711
31
0
0
SPLINE
5
369
100
AcDbEntity
8
0
100
AcDbSpline
70
1064
71
3
72
8
73
4
74
0
42
0.000000001
43
0.0000000001
44
0.0000000001
40
0
40
0
40
0
40
0
40
1
40
1
40
1
40
1
10
89.957071558376526
20
-54.092810950122711
30
0
10
91.473809731659514
20
-54.092810950122711
30
0
10
92.70805933785185
20
-52.867850501463366
30
0
10
92.70805933785185
20
-51.362236660738184
30
0
0
LINE
5
370
100
AcDbEntity
8
0
100
AcDbLine
10
92.70805933785185
20
-51.362236660738191
30
0
11
92.70805933785185
21
-47.89655393934764
31
0
0
SPLINE
5
371
100
AcDbEntity
8
0
100
AcDbSpline
70
1064
71
3
72
8
73
4
74
0
42
0.000000001
43
0.0000000001
44
0.0000000001
40
0
40
0
40
0
40
0
40
1
40
1
40
1
40
1
10
92.70805933785185
20
-47.89655393934764
30
0
10
92.70805933785185
20
-46.390951426863353
30
0
10
91.473719105732357
20
-45.16597964996312
30
0
10
89.957071558376526
20
-45.16597964996312
30
0
0
LINE
5
372
100
AcDbEntity
8
0
100
AcDbLine
10
89.957071558376526
20
-45.16597964996312
30
0
11
9.7807669374140502
21
-45.165977761922974
31
0
0
LINE
5
373
100
AcDbEntity
8
0
100
AcDbLine
10
9.7807669374140502
20
-45.58605725487066
30
0
11
19.822074352794871
21
-45.58605725487066
31
0
0
LINE
5
374
100
AcDbEntity
8
0
100
AcDbLine
10
19.822074352794871
20
-45.58605725487066
30
0
11
89.957320779676195
21
-45.58605725487066
31
0
0
SPLINE
5
375
100
AcDbEntity
8
0
100
AcDbSpline
70
1064
71
3
72
8
73
4
74
0
42
0.000000001
43
0.0000000001
44
0.0000000001
40
0
40
0
40
0
40
0
40
1
40
1
40
1
40
1
10
89.957320779676195
20
-45.58605725487066
30
0
10
91.242555022051647
20
-45.58605725487066
30
0
10
92.288234730324277
20
-46.622396828526277
30
0
10
92.288234730324277
20
-47.89655393934764
30
0
0
LINE
5
376
100
AcDbEntity
8
0
100
AcDbLine
10
92.288234730324277
20
-47.89655393934764
30
0
11
92.288234730324277
21
-51.362236660738184
31
0
0
SPLINE
5
377
100
AcDbEntity
8
0
100
AcDbSpline
70
1064
71
3
72
8
73
4
74
0
42
0.000000001
43
0.0000000001
44
0.0000000001
40
0
40
0
40
0
40
0
40
1
40
1
40
1
40
1
10
92.288234730324277
20
-51.362236660738184
30
0
10
92.288234730324277
20
-52.636086021015267
30
0
10
91.242502156927472
20
-53.672733345215171
30
0
10
89.957320779676195
20
-53.672733345215171
30
0
0
LINE
5
378
100
AcDbEntity
8
0
100
AcDbLine
10
89.957320779676195
20
-53.672733345215171
30
0
11
9.7810086065531188
21
-53.672733345215171
31
0
0
SPLINE
5
379
100
AcDbEntity
8
0
100
AcDbSpline
70
1064
71
3
72
8
73
4
74
0
42
0.000000001
43
0.0000000001
44
0.0000000001
40
0
40
0
40
0
40
0
40
1
40
1
40
1
40
1
10
9.7810086065531205
20
-53.672733345215171
30
0
10
8.4961444200468854
20
-53.672733345215171
30
0
10
7.4504722639348486
20
-52.636184199103013
30
0
10
7.4504722639348486
20
-51.362236660738184
30
0
0
LINE
5
380
100
AcDbEntity
8
0
100
AcDbLine
10
7.4504722639348486
20
-51.362236660738184
30
0
11
7.4504722639348486
21
-47.89655393934764
31
0
0
SPLINE
5
381
100
AcDbEntity
8
0
100
AcDbSpline
70
1064
71
3
72
8
73
4
74
0
42
0.000000001
43
0.0000000001
44
0.0000000001
40
0
40
0
40
0
40
0
40
1
40
1
40
1
40
1
10
7.4504722639348486
20
-47.89655393934764
30
0
10
7.4504722639348486
20
-46.622459133851194
30
0
10
8.4962048373316534
20
-45.58605725487066
30
0
10
9.7810086065531205
20
-45.58605725487066
30
0
0
LINE
5
382
100
AcDbEntity
8
0
100
AcDbLine
10
9.7810086065531205
20
-45.586057254870653
30
0
11
9.7807669374140502
21
-45.58605725487066
31
0
0
SPLINE
5
383
100
AcDbEntity
8
0
100
AcDbSpline
70
1064
71
3
72
8
73
4
74
0
42
0.000000001
43
0.0000000001
44
0.0000000001
40
0
40
0
40
0
40
0
40
1
40
1
40
1
40
1
10
3.7446270595135234
20
-57.620731026984295
30
0
10
4.3623484832967669
20
-57.620731026984295
30
0
10
4.8649598752768943
20
-58.123153614949523
30
0
10
4.8649598752768943
20
-58.740678682557274
30
0
0
SPLINE
5
384
100
AcDbEntity
8
0
100
AcDbSpline
70
1064
71
3
72
8
73
4
74
0
42
0.000000001
43
0.0000000001
44
0.0000000001
40
0
40
0
40
0
40
0
40
1
40
1
40
1
40
1
10
4.8649598752768943
20
-58.740678682557274
30
0
10
4.8649598752768943
20
-58.79129703895147
30
0
10
4.8570452109723625
20
-58.839426958429314
30
0
10
4.8502633707572205
20
-58.888368735171213
30
0
0
LINE
5
385
100
AcDbEntity
8
0
100
AcDbLine
10
4.8502633707572205
20
-58.888368735171213
30
0
11
2.6990153206862533
21
-58.34931816831574
31
0
0
SPLINE
5
386
100
AcDbEntity
8
0
100
AcDbSpline
70
1064
71
3
72
8
73
4
74
0
42
0.000000001
43
0.0000000001
44
0.0000000001
40
0
40
0
40
0
40
0
40
1
40
1
40
1
40
1
10
2.6990153206862537
20
-58.34931816831574
30
0
10
2.8582299703695839
20
-57.925034009956271
30
0
10
3.2649893400662067
20
-57.62074235522519
30
0
10
3.7447176854406745
20
-57.62074235522519
30
0
0
LINE
5
387
100
AcDbEntity
8
0
100
AcDbLine
10
3.7447176854406745
20
-57.620742355225183
30
0
11
3.7446270595135234
21
-57.620731026984295
31
0
0
SPLINE
5
388
100
AcDbEntity
8
0
100
AcDbSpline
70
1064
71
3
72
8
73
4
74
0
42
0.000000001
43
0.0000000001
44
0.0000000001
40
0
40
0
40
0
40
0
40
1
40
1
40
1
40
1
10
96.288206381314566
20
-57.620731026984295
30
0
10
96.9059353572584
20
-57.620731026984295
30
0
10
97.408138932566359
20
-58.123153614949523
30
0
10
97.408138932566359
20
-58.740678682557274
30
0
0
SPLINE
5
389
100
AcDbEntity
8
0
100
AcDbSpline
70
1064
71
3
72
8
73
4
74
0
42
0.000000001
43
0.0000000001
44
0.0000000001
40
0
40
0
40
0
40
0
40
1
40
1
40
1
40
1
10
97.408138932566359
20
-58.740678682557274
30
0
10
97.408138932566359
20
-58.79129703895147
30
0
10
97.399944838319769
20
-58.839426958429314
30
0
10
97.393434875886072
20
-58.888368735171213
30
0
0
LINE
5
390
100
AcDbEntity
8
0
100
AcDbLine
10
97.393434875886101
20
-58.888368735171213
30
0
11
95.242186825815111
21
-58.34931816831574
31
0
0
SPLINE
5
391
100
AcDbEntity
8
0
100
AcDbSpline
70
1064
71
3
72
8
73
4
74
0
42
0.000000001
43
0.0000000001
44
0.0000000001
40
0
40
0
40
0
40
0
40
1
40
1
40
1
40
1
10
95.242186825815111
20
-58.34931816831574
30
0
10
95.401605383834536
20
-57.925034009956271
30
0
10
95.808553557546063
20
-57.62074235522519
30
0
10
96.288289455081113
20
-57.62074235522519
30
0
0
LINE
5
392
100
AcDbEntity
8
0
100
AcDbLine
10
96.288289455081113
20
-57.620742355225183
30
0
11
96.288206381314566
21
-57.620731026984295
31
0
0
LINE
5
393
100
AcDbEntity
8
0
100
AcDbLine
10
2.6260614493295997
20
-58.764460436273851
30
0
11
4.7158198078285292
21
-59.287511750906852
31
0
0
SPLINE
5
394
100
AcDbEntity
8
0
100
AcDbSpline
70
1064
71
3
72
8
73
4
74
0
42
0.000000001
43
0.0000000001
44
0.0000000001
40
0
40
0
40
0
40
0
40
1
40
1
40
1
40
1
10
4.7158198078285292
20
-59.287511750906845
30
0
10
4.5234209644866965
20
-59.628201043630007
30
0
10
4.1619594540444433
20
-59.861022826561538
30
0
10
3.7439775737022734
20
-59.861022826561538
30
0
0
SPLINE
5
395
100
AcDbEntity
8
0
100
AcDbSpline
70
1064
71
3
72
8
73
4
74
0
42
0.000000001
43
0.0000000001
44
0.0000000001
40
0
40
0
40
0
40
0
40
1
40
1
40
1
40
1
10
3.7439775737022734
20
-59.861022826561538
30
0
10
3.1340197710116424
20
-59.861022826561538
30
0
10
2.6388850180214836
20
-59.371057527499289
30
0
10
2.6260765536507917
20
-58.764460436273851
30
0
0
LINE
5
396
100
AcDbEntity
8
0
100
AcDbLine
10
2.6260765536507917
20
-58.764460436273851
30
0
11
2.6260614493295997
21
-58.764460436273851
31
0
0
LINE
5
397
100
AcDbEntity
8
0
100
AcDbLine
10
95.169640771130645
20
-58.764460436273851
30
0
11
97.259021521599763
21
-59.287511750906852
31
0
0
SPLINE
5
398
100
AcDbEntity
8
0
100
AcDbSpline
70
1064
71
3
72
8
73
4
74
0
42
0.000000001
43
0.0000000001
44
0.0000000001
40
0
40
0
40
0
40
0
40
1
40
1
40
1
40
1
10
97.259021521599763
20
-59.287511750906845
30
0
10
97.066630230418539
20
-59.628201043630007
30
0
10
96.705780444984555
20
-59.861022826561538
30
0
10
96.287579551985104
20
-59.861022826561538
30
0
0
SPLINE
5
399
100
AcDbEntity
8
0
100
AcDbSpline
70
1064
71
3
72
8
73
4
74
0
42
0.000000001
43
0.0000000001
44
0.0000000001
40
0
40
0
40
0
40
0
40
1
40
1
40
1
40
1
10
96.287579551985104
20
-59.861022826561538
30
0
10
95.677825657630549
20
-59.861022826561538
30
0
10
95.182494548464902
20
-59.371268987995975
30
0
10
95.169686084094209
20
-58.764460436273851
30
0
0
LINE
5
400
100
AcDbEntity
8
0
100
AcDbLine
10
95.169686084094195
20
-58.764460436273851
30
0
11
95.169640771130645
21
-58.764460436273851
31
0
0
LINE
5
401
100
AcDbEntity
8
0
100
AcDbLine
10
50.33585423322026
20
-62.578773547254166
30
0
11
50.33585423322026
21
-0.00083979648936555185
31
0
0
LINE
5
402
100
AcDbEntity
8
0
100
AcDbLine
10
55.509650851297835
20
-25.402777503015507
30
0
11
45.162057615142679
21
-25.402777259344123
31
0
0
LINE
5
403
100
AcDbEntity
8
0
100
AcDbLine
10
50.33585423322026
20
-25.402777381179821
30
0
11
50.33585423322026
21
-23.566853921888082
31
0
0
LINE
5
404
100
AcDbEntity
8
0
100
AcDbLine
10
50.33585423322026
20
-43.93148849036627
30
0
11
50.33585423322026
21
-42.095565031074536
31
0
0
LINE
5
405
100
AcDbEntity
8
0
100
AcDbLine
10
50.33585423322026
20
-43.93148849036627
30
0
11
50.33585423322026
21
-42.095565031074536
31
0
0
LINE
5
406
100
AcDbEntity
8
0
100
AcDbLine
10
44.836126657869329
20
-41.953016119380628
30
0
11
55.183719894024499
21
-41.953016119380628
31
0
0
ARC
5
407
100
AcDbEntity
8
0
100
AcDbCircle
10
30.018605236933887
20
-33.382879531187811
30
0
40
17.117423351666041
100
AcDbArc
50
-30.044167537228027
51
27.787758454101354
0
ARC
5
408
100
AcDbEntity
8
0
100
AcDbCircle
10
70.653103229506641
20
-33.382879531187811
30
0
40
17.117423351666059
100
AcDbArc
50
152.21224154589868
51
210.04416753722802
0
SPLINE
5
409
100
AcDbEntity
8
0
100
AcDbSpline
70
1064
71
3
72
8
73
4
74
0
42
0.000000001
43
0.0000000001
44
0.0000000001
40
0
40
0
40
0
40
0
40
1
40
1
40
1
40
1
10
88.135127918930351
20
-41.861139068864318
30
0
10
88.135127918930351
20
-42.796028581194705
30
0
10
87.024008739094029
20
-43.5287108816093
30
0
10
85.605622353251803
20
-43.5287108816093
30
0
0
SPLINE
5
410
100
AcDbEntity
8
0
100
AcDbSpline
70
1064
71
3
72
8
73
4
74
0
42
0.000000001
43
0.0000000001
44
0.0000000001
40
0
40
0
40
0
40
0
40
1
40
1
40
1
40
1
10
71.452239014994746
20
-24.686788122038354
30
0
10
66.529952199066287
20
-24.686788122038354
30
0
10
62.525524773324399
20
-28.691458632949427
30
0
10
62.525524773324399
20
-33.613496227578224
30
0
0
LINE
5
411
100
AcDbEntity
8
0
100
AcDbLine
10
74.639794542038814
20
-35.460463951158999
30
0
11
75.319141596284823
21
-35.854694286426977
31
0
0
SPLINE
5
412
100
AcDbEntity
8
0
100
AcDbSpline
70
1064
71
3
72
8
73
4
74
0
42
0.000000001
43
0.0000000001
44
0.0000000001
40
0
40
0
40
0
40
0
40
1
40
1
40
1
40
1
10
71.453084856981491
20
-38.087603849021704
30
0
10
71.691687818849203
20
-38.087603849021704
30
0
10
71.924233947918992
20
-38.063425606873842
30
0
10
72.152958683727221
20
-38.027301734703371
30
0
0
SPLINE
5
413
100
AcDbEntity
8
0
100
AcDbSpline
70
1064
71
3
72
8
73
4
74
0
42
0.000000001
43
0.0000000001
44
0.0000000001
40
0
40
0
40
0
40
0
40
1
40
1
40
1
40
1
10
71.452239014994746
20
-29.139871944412885
30
0
10
70.643583867025285
20
-29.139871944412885
30
0
10
69.886494871604796
20
-29.358721286221879
30
0
10
69.231209001017419
20
-29.7355306750352
30
0
0
SPLINE
5
414
100
AcDbEntity
8
0
100
AcDbSpline
70
1064
71
3
72
8
73
4
74
0
42
0.000000001
43
0.0000000001
44
0.0000000001
40
0
40
0
40
0
40
0
40
1
40
1
40
1
40
1
10
69.622154146426169
20
-30.417345397755927
30
0
10
69.062388003056071
20
-30.738498195037494
30
0
10
68.594758218956272
20
-31.202800308374709
30
0
10
68.269244992950632
20
-31.760484887480555
30
0
0
SPLINE
5
415
100
AcDbEntity
8
0
100
AcDbSpline
70
1064
71
3
72
8
73
4
74
0
42
0.000000001
43
0.0000000001
44
0.0000000001
40
0
40
0
40
0
40
0
40
1
40
1
40
1
40
1
10
67.770016968917474
20
-33.613954077314354
30
0
10
67.770016968917474
20
-34.261086446518355
30
0
10
67.939895269362268
20
-34.897204933513279
30
0
10
68.261466267536832
20
-35.453887907320095
30
0
0
SPLINE
5
416
100
AcDbEntity
8
0
100
AcDbSpline
70
1064
71
3
72
8
73
4
74
0
42
0.000000001
43
0.0000000001
44
0.0000000001
40
0
40
0
40
0
40
0
40
1
40
1
40
1
40
1
10
72.152112841740475
20
-39.839571056426159
30
0
10
75.279009414878061
20
-39.490057064046667
30
0
10
77.718191139829329
20
-36.832325251650012
30
0
10
77.718191139829329
20
-33.613864395407276
30
0
0
SPLINE
5
417
100
AcDbEntity
8
0
100
AcDbSpline
70
1064
71
3
72
8
73
4
74
0
42
0.000000001
43
0.0000000001
44
0.0000000001
40
0
40
0
40
0
40
0
40
1
40
1
40
1
40
1
10
67.581711396618644
20
-35.846892904531387
30
0
10
67.97427270439492
20
-36.52469931801582
30
0
10
68.53829826634113
20
-37.089064727188841
30
0
10
69.215258837838832
20
-37.482539846397231
30
0
0
LINE
5
418
100
AcDbEntity
8
0
100
AcDbLine
10
68.261466267536832
20
-35.453887907320095
30
0
11
67.581711396618644
21
-35.846892904531387
31
0
0
LINE
5
419
100
AcDbEntity
8
0
100
AcDbLine
10
71.448508247660371
20
-37.296296013941074
30
0
11
71.448508247660371
21
-38.087231905112347
31
0
0
SPLINE
5
420
100
AcDbEntity
8
0
100
AcDbSpline
70
1064
71
3
72
8
73
4
74
0
42
0.000000001
43
0.0000000001
44
0.0000000001
40
0
40
0
40
0
40
0
40
1
40
1
40
1
40
1
10
71.452239014994746
20
-40.719969842016788
30
0
10
67.53355882065901
20
-40.719969842016788
30
0
10
64.34579183311827
20
-37.532195302315451
30
0
10
64.34579183311827
20
-33.613891771989437
30
0
0
SPLINE
5
421
100
AcDbEntity
8
0
100
AcDbSpline
70
1064
71
3
72
8
73
4
74
0
42
0.000000001
43
0.0000000001
44
0.0000000001
40
0
40
0
40
0
40
0
40
1
40
1
40
1
40
1
10
69.609073804274018
20
-36.802371494686412
30
0
10
70.165260223521656
20
-37.124576874351042
30
0
10
70.801424023480152
20
-37.295663520491168
30
0
10
71.448508247660371
20
-37.296296013941074
30
0
0
SPLINE
5
422
100
AcDbEntity
8
0
100
AcDbSpline
70
1064
71
3
72
8
73
4
74
0
42
0.000000001
43
0.0000000001
44
0.0000000001
40
0
40
0
40
0
40
0
40
1
40
1
40
1
40
1
10
71.452239014994746
20
-42.540576749037477
30
0
10
71.687700278054564
20
-42.540576749037477
30
0
10
71.921062040468698
20
-42.528289383747904
30
0
10
72.152112841740475
20
-42.510218951481995
30
0
0
LINE
5
423
100
AcDbEntity
8
0
100
AcDbLine
10
69.231209001017419
20
-29.7355306750352
30
0
11
69.622154146426169
21
-30.417345397755927
31
0
0
LINE
5
424
100
AcDbEntity
8
0
100
AcDbLine
10
71.45223901499476
20
-27.879648569891007
30
0
11
71.452239014994746
21
-27.87963535360997
31
0
0
SPLINE
5
425
100
AcDbEntity
8
0
100
AcDbSpline
70
1064
71
3
72
8
73
4
74
0
42
0.000000001
43
0.0000000001
44
0.0000000001
40
0
40
0
40
0
40
0
40
1
40
1
40
1
40
1
10
65.185954595093946
20
-33.613854955206527
30
0
10
65.185954595093946
20
-37.069019404927104
30
0
10
67.997080229394626
20
-39.87977498335858
30
0
10
71.452239014994746
20
-39.87977498335858
30
0
0
SPLINE
5
426
100
AcDbEntity
8
0
100
AcDbSpline
70
1064
71
3
72
8
73
4
74
0
42
0.000000001
43
0.0000000001
44
0.0000000001
40
0
40
0
40
0
40
0
40
1
40
1
40
1
40
1
10
62.525524773324399
20
-33.613496227578224
30
0
10
62.525524773324399
20
-38.535783043506683
30
0
10
66.529952199066287
20
-42.540576749037477
30
0
10
71.452239014994746
20
-42.540576749037477
30
0
0
LINE
5
427
100
AcDbEntity
8
0
100
AcDbLine
10
73.697858863872412
20
-29.749579581783774
30
0
11
73.302805343099479
21
-30.42893230015023
31
0
0
LINE
5
428
100
AcDbEntity
8
0
100
AcDbLine
10
74.6475732674526
20
-31.780225291258233
30
0
11
75.328551588387342
21
-31.38844468808356
31
0
0
SPLINE
5
429
100
AcDbEntity
8
0
100
AcDbSpline
70
1064
71
3
72
8
73
4
74
0
42
0.000000001
43
0.0000000001
44
0.0000000001
40
0
40
0
40
0
40
0
40
1
40
1
40
1
40
1
10
71.452239014994746
20
-27.347563927165204
30
0
10
67.997080229394626
20
-27.347563927165204
30
0
10
65.185954595093946
20
-30.158566838856196
30
0
10
65.185954595093946
20
-33.613854955206527
30
0
0
SPLINE
5
430
100
AcDbEntity
8
0
100
AcDbSpline
70
1064
71
3
72
8
73
4
74
0
42
0.000000001
43
0.0000000001
44
0.0000000001
40
0
40
0
40
0
40
0
40
1
40
1
40
1
40
1
10
77.718191139829329
20
-33.613864395407276
30
0
10
77.718191139829329
20
-30.395156205905018
30
0
10
75.279009414878061
20
-27.736841933122406
30
0
10
72.152112841740475
20
-27.387292067980077
30
0
0
SPLINE
5
431
100
AcDbEntity
8
0
100
AcDbSpline
70
1064
71
3
72
8
73
4
74
0
42
0.000000001
43
0.0000000001
44
0.0000000001
40
0
40
0
40
0
40
0
40
1
40
1
40
1
40
1
10
72.152112841740475
20
-27.387292067980077
30
0
10
71.922330803448801
20
-27.361666643058022
30
0
10
71.688953936713474
20
-27.347500677820214
30
0
10
71.452239014994746
20
-27.347500677820214
30
0
0
SPLINE
5
432
100
AcDbEntity
8
0
100
AcDbSpline
70
1064
71
3
72
8
73
4
74
0
42
0.000000001
43
0.0000000001
44
0.0000000001
40
0
40
0
40
0
40
0
40
1
40
1
40
1
40
1
10
71.452239014994746
20
-27.87963535360997
30
0
10
71.689376857706847
20
-27.87963535360997
30
0
10
71.922542263945502
20
-27.895577020607895
30
0
10
72.152112841740475
20
-27.923940103745974
30
0
0
SPLINE
5
433
100
AcDbEntity
8
0
100
AcDbSpline
70
1064
71
3
72
8
73
4
74
0
42
0.000000001
43
0.0000000001
44
0.0000000001
40
0
40
0
40
0
40
0
40
1
40
1
40
1
40
1
10
72.152112841740475
20
-27.923940103745974
30
0
10
74.984898072630273
20
-28.270298237016448
30
0
10
77.186503929554888
20
-30.689037207254621
30
0
10
77.186503929554888
20
-33.613875723648164
30
0
0
SPLINE
5
434
100
AcDbEntity
8
0
100
AcDbSpline
70
1064
71
3
72
8
73
4
74
0
42
0.000000001
43
0.0000000001
44
0.0000000001
40
0
40
0
40
0
40
0
40
1
40
1
40
1
40
1
10
65.718004309076989
20
-33.613881387768615
30
0
10
65.718004309076989
20
-30.451967333987881
30
0
10
68.290572294473534
20
-27.87964856989101
30
0
10
71.452239014994746
20
-27.87964856989101
30
0
0
SPLINE
5
435
100
AcDbEntity
8
0
100
AcDbSpline
70
1064
71
3
72
8
73
4
74
0
42
0.000000001
43
0.0000000001
44
0.0000000001
40
0
40
0
40
0
40
0
40
1
40
1
40
1
40
1
10
75.328551588387342
20
-31.38844468808356
30
0
10
74.937666860263349
20
-30.709809424973717
30
0
10
74.374411618697934
20
-30.144416921959653
30
0
10
73.697858863872412
20
-29.749579581783774
30
0
0
SPLINE
5
436
100
AcDbEntity
8
0
100
AcDbSpline
70
1064
71
3
72
8
73
4
74
0
42
0.000000001
43
0.0000000001
44
0.0000000001
40
0
40
0
40
0
40
0
40
1
40
1
40
1
40
1
10
73.302805343099479
20
-30.42893230015023
30
0
10
72.946781388286297
20
-30.221416863355572
30
0
10
72.557240944748401
20
-30.077142275371138
30
0
10
72.152913370763656
20
-29.99900384576538
30
0
0
SPLINE
5
437
100
AcDbEntity
8
0
100
AcDbSpline
70
1064
71
3
72
8
73
4
74
0
42
0.000000001
43
0.0000000001
44
0.0000000001
40
0
40
0
40
0
40
0
40
1
40
1
40
1
40
1
10
72.152913370763656
20
-29.99900384576538
30
0
10
71.927118873266636
20
-29.955526057214627
30
0
10
71.696626931878939
20
-29.932154008210382
30
0
10
71.464533932444922
20
-29.931313830344088
30
0
0
LINE
5
438
100
AcDbEntity
8
0
100
AcDbLine
10
71.467011041120386
20
-29.140785755844991
30
0
11
71.452239014994746
21
-29.139871944412885
31
0
0
LINE
5
439
100
AcDbEntity
8
0
100
AcDbLine
10
71.464533932444922
20
-29.931313830344081
30
0
11
71.467011041120386
21
-29.140785755844991
31
0
0
SPLINE
5
440
100
AcDbEntity
8
0
100
AcDbSpline
70
1064
71
3
72
8
73
4
74
0
42
0.000000001
43
0.0000000001
44
0.0000000001
40
0
40
0
40
0
40
0
40
1
40
1
40
1
40
1
10
77.186503929554888
20
-33.613875723648164
30
0
10
77.186503929554888
20
-36.538219573522682
30
0
10
74.984898072630273
20
-38.957106754912552
30
0
10
72.152112841740475
20
-39.303439399641015
30
0
0
LINE
5
441
100
AcDbEntity
8
0
100
AcDbLine
10
71.452239014994746
20
-27.347500677820214
30
0
11
71.452239014994746
21
-27.347563927165204
31
0
0
LINE
5
442
100
AcDbEntity
8
0
100
AcDbLine
10
71.452239014994746
20
-26.507442702072808
30
0
11
71.452239014994746
21
-26.507406357299939
31
0
0
LINE
5
443
100
AcDbEntity
8
0
100
AcDbLine
10
71.452239014994746
20
-24.68674092103463
30
0
11
71.452239014994746
21
-24.686788122038354
31
0
0
SPLINE
5
444
100
AcDbEntity
8
0
100
AcDbSpline
70
1064
71
3
72
8
73
4
74
0
42
0.000000001
43
0.0000000001
44
0.0000000001
40
0
40
0
40
0
40
0
40
1
40
1
40
1
40
1
10
72.152112841740475
20
-24.71668854186774
30
0
10
71.921062040468698
20
-24.698625661762431
30
0
10
71.687685173733371
20
-24.68674092103463
30
0
10
71.452239014994746
20
-24.68674092103463
30
0
0
SPLINE
5
445
100
AcDbEntity
8
0
100
AcDbSpline
70
1064
71
3
72
8
73
4
74
0
42
0.000000001
43
0.0000000001
44
0.0000000001
40
0
40
0
40
0
40
0
40
1
40
1
40
1
40
1
10
72.152112841740475
20
-39.303439399641015
30
0
10
71.922542263945502
20
-39.331584414141886
30
0
10
71.689376857706847
20
-39.347742261736869
30
0
10
71.452239014994746
20
-39.347742261736869
30
0
0
SPLINE
5
446
100
AcDbEntity
8
0
100
AcDbSpline
70
1064
71
3
72
8
73
4
74
0
42
0.000000001
43
0.0000000001
44
0.0000000001
40
0
40
0
40
0
40
0
40
1
40
1
40
1
40
1
10
71.452239014994746
20
-26.507406357299939
30
0
10
71.688108094726744
20
-26.507406357299939
30
0
10
71.921907882455429
20
-26.519189615869735
30
0
10
72.152112841740475
20
-26.541864978059007
30
0
0
SPLINE
5
447
100
AcDbEntity
8
0
100
AcDbSpline
70
1064
71
3
72
8
73
4
74
0
42
0.000000001
43
0.0000000001
44
0.0000000001
40
0
40
0
40
0
40
0
40
1
40
1
40
1
40
1
10
80.378983465307499
20
-33.613453746674871
30
0
10
80.378983465307499
20
-28.926882135206252
30
0
10
76.748236945852057
20
-25.07527173510287
30
0
10
72.152112841740475
20
-24.71668854186774
30
0
0
SPLINE
5
448
100
AcDbEntity
8
0
100
AcDbSpline
70
1064
71
3
72
8
73
4
74
0
42
0.000000001
43
0.0000000001
44
0.0000000001
40
0
40
0
40
0
40
0
40
1
40
1
40
1
40
1
10
85.605622353251803
20
-23.566853682746419
30
0
10
87.023993634772836
20
-23.566853682746419
30
0
10
88.135127918930351
20
-24.298953994785087
30
0
10
88.135127918930351
20
-25.233682551692773
30
0
0
LINE
5
449
100
AcDbEntity
8
0
100
AcDbLine
10
69.215258837838832
20
-37.482539846397231
30
0
11
69.609073804274018
21
-36.802371494686419
31
0
0
LINE
5
450
100
AcDbEntity
8
0
100
AcDbLine
10
71.448508247660371
20
-38.087231905112347
30
0
11
71.453084856981491
21
-38.087603849021697
31
0
0
SPLINE
5
451
100
AcDbEntity
8
0
100
AcDbSpline
70
1064
71
3
72
8
73
4
74
0
42
0.000000001
43
0.0000000001
44
0.0000000001
40
0
40
0
40
0
40
0
40
1
40
1
40
1
40
1
10
72.152958683727221
20
-38.027301734703371
30
0
10
72.702212219547803
20
-37.94034426956172
30
0
10
73.218326874673437
20
-37.755036905019466
30
0
10
73.682316517366004
20
-37.48702771783136
30
0
0
SPLINE
5
452
100
AcDbEntity
8
0
100
AcDbSpline
70
1064
71
3
72
8
73
4
74
0
42
0.000000001
43
0.0000000001
44
0.0000000001
40
0
40
0
40
0
40
0
40
1
40
1
40
1
40
1
10
72.152112841740475
20
-42.510218951481995
30
0
10
76.748236945852057
20
-42.151474330814132
30
0
10
80.378983465307499
20
-38.299902635533797
30
0
10
80.378983465307499
20
-33.613453746674871
30
0
0
LINE
5
453
100
AcDbEntity
8
0
100
AcDbLine
10
75.926697811905939
20
-33.61930478309656
30
0
11
75.135352216022341
21
-33.613972013695765
31
0
0
LINE
5
454
100
AcDbEntity
8
0
100
AcDbLine
10
66.978656268712697
20
-33.602471961148325
30
0
11
67.770016968917474
21
-33.613954077314347
31
0
0
LINE
5
455
100
AcDbEntity
8
0
100
AcDbLine
10
68.269244992950632
20
-31.760484887480555
30
0
11
67.59113649304237
21
-31.364608181202662
31
0
0
SPLINE
5
456
100
AcDbEntity
8
0
100
AcDbSpline
70
1064
71
3
72
8
73
4
74
0
42
0.000000001
43
0.0000000001
44
0.0000000001
40
0
40
0
40
0
40
0
40
1
40
1
40
1
40
1
10
64.34579183311827
20
-33.613891771989437
30
0
10
64.34579183311827
20
-29.695217241774145
30
0
10
67.53355882065901
20
-26.507442702072805
30
0
10
71.452239014994746
20
-26.507442702072805
30
0
0
SPLINE
5
457
100
AcDbEntity
8
0
100
AcDbSpline
70
1064
71
3
72
8
73
4
74
0
42
0.000000001
43
0.0000000001
44
0.0000000001
40
0
40
0
40
0
40
0
40
1
40
1
40
1
40
1
10
67.59113649304237
20
-31.364608181202666
30
0
10
67.205915885365329
20
-32.023297244158591
30
0
10
66.98096722985504
20
-32.786442128356931
30
0
10
66.978656268712683
20
-33.602471961148318
30
0
0
SPLINE
5
458
100
AcDbEntity
8
0
100
AcDbSpline
70
1064
71
3
72
8
73
4
74
0
42
0.000000001
43
0.0000000001
44
0.0000000001
40
0
40
0
40
0
40
0
40
1
40
1
40
1
40
1
10
75.135352216022341
20
-33.613972013695765
30
0
10
75.135352216022341
20
-32.969363954170944
30
0
10
74.966621843988136
20
-32.335298710838039
30
0
10
74.6475732674526
20
-31.780225291258233
30
0
0
SPLINE
5
459
100
AcDbEntity
8
0
100
AcDbSpline
70
1064
71
3
72
8
73
4
74
0
42
0.000000001
43
0.0000000001
44
0.0000000001
40
0
40
0
40
0
40
0
40
1
40
1
40
1
40
1
10
72.152112841740475
20
-40.685099628505242
30
0
10
71.921907882455429
20
-40.707784430895259
30
0
10
71.688108094726744
20
-40.719969842016788
30
0
10
71.452239014994746
20
-40.719969842016788
30
0
0
LINE
5
460
100
AcDbEntity
8
0
100
AcDbLine
10
88.135127918930351
20
-25.233682551692773
30
0
11
88.135127918930351
21
-41.861139068864318
31
0
0
SPLINE
5
461
100
AcDbEntity
8
0
100
AcDbSpline
70
1064
71
3
72
8
73
4
74
0
42
0.000000001
43
0.0000000001
44
0.0000000001
40
0
40
0
40
0
40
0
40
1
40
1
40
1
40
1
10
71.452239014994746
20
-39.347742261736869
30
0
10
68.290451459903991
20
-39.347742261736869
30
0
10
65.718004309076989
20
-36.775423497639999
30
0
10
65.718004309076989
20
-33.613881387768615
30
0
0
SPLINE
5
462
100
AcDbEntity
8
0
100
AcDbSpline
70
1064
71
3
72
8
73
4
74
0
42
0.000000001
43
0.0000000001
44
0.0000000001
40
0
40
0
40
0
40
0
40
1
40
1
40
1
40
1
10
72.152112841740475
20
-26.541864978059007
30
0
10
75.74313499646135
20
-26.894731185723018
30
0
10
78.558353901805006
20
-29.93145071325489
30
0
10
78.558353901805006
20
-33.613915372491292
30
0
0
SPLINE
5
463
100
AcDbEntity
8
0
100
AcDbSpline
70
1064
71
3
72
8
73
4
74
0
42
0.000000001
43
0.0000000001
44
0.0000000001
40
0
40
0
40
0
40
0
40
1
40
1
40
1
40
1
10
71.452239014994746
20
-39.87977498335858
30
0
10
71.688953936713474
20
-39.87977498335858
30
0
10
71.922330803448801
20
-39.865197425368287
30
0
10
72.152112841740475
20
-39.839571056426159
30
0
0
LINE
5
464
100
AcDbEntity
8
0
100
AcDbLine
10
73.68231651736599
20
-37.48702771783136
30
0
11
73.289725000947342
21
-36.806449661408216
31
0
0
SPLINE
5
465
100
AcDbEntity
8
0
100
AcDbSpline
70
1064
71
3
72
8
73
4
74
0
42
0.000000001
43
0.0000000001
44
0.0000000001
40
0
40
0
40
0
40
0
40
1
40
1
40
1
40
1
10
73.289725000947342
20
-36.806449661408216
30
0
10
73.848856762827381
20
-36.484034709287052
30
0
10
74.315701122225192
20
-36.018334502219517
30
0
10
74.6397945420388
20
-35.460463951158999
30
0
0
SPLINE
5
466
100
AcDbEntity
8
0
100
AcDbSpline
70
1064
71
3
72
8
73
4
74
0
42
0.000000001
43
0.0000000001
44
0.0000000001
40
0
40
0
40
0
40
0
40
1
40
1
40
1
40
1
10
78.558353901805006
20
-33.613915372491292
30
0
10
78.558353901805006
20
-37.295886309228749
30
0
10
75.743150100782529
20
-40.332209820339372
30
0
10
72.152112841740475
20
-40.685099628505242
30
0
0
SPLINE
5
467
100
AcDbEntity
8
0
100
AcDbSpline
70
1064
71
3
72
8
73
4
74
0
42
0.000000001
43
0.0000000001
44
0.0000000001
40
0
40
0
40
0
40
0
40
1
40
1
40
1
40
1
10
75.319141596284823
20
-35.854694286426977
30
0
10
75.702474163812866
20
-35.196425312404202
30
0
10
75.9256556137437
20
-34.434221616220128
30
0
10
75.926697811905939
20
-33.619304783096567
30
0
0
LINE
5
468
100
AcDbEntity
8
0
100
AcDbLine
10
15.066086113188717
20
-23.566853682746419
30
0
11
85.605622353251789
21
-23.566853682746419
31
0
0
LINE
5
469
100
AcDbEntity
8
0
100
AcDbLine
10
15.066086113188717
20
-43.5287108816093
30
0
11
85.605622353251789
21
-43.5287108816093
31
0
0
LWPOLYLINE
5
470
100
AcDbEntity
8
0
100
AcDbPolyline
90
4
70
1
43
0.0
10
120
20
20.674129311673415
10
-20
20
20.674129311673404
10
-20
20
-79.325870688326589
10
120
20
-79.325870688326589
0
ENDSEC
0
SECTION
2
OBJECTS
0
DICTIONARY
5
C
100
AcDbDictionary
3
ACAD_GROUP
350
D
3
ACAD_MLINESTYLE
350
17
0
DICTIONARY
5
D
100
AcDbDictionary
0
DICTIONARY
5
1A
330
C
100
AcDbDictionary
0
DICTIONARY
5
17
100
AcDbDictionary
0
ENDSEC
0
EOF
